<?xml version="1.0" standalone="no"?>
<!DOCTYPE svg PUBLIC "-//W3C//DTD SVG 1.1//EN" "http://www.w3.org/Graphics/SVG/1.1/DTD/svg11.dtd" >
<svg xmlns="http://www.w3.org/2000/svg">
<metadata>Generated by IcoMoon</metadata>
<defs>
<font id="icomoon" horiz-adv-x="1024">
<font-face units-per-em="1024" ascent="877.7142857142858" descent="-146.28571428571428" />
<missing-glyph horiz-adv-x="1024" />
<glyph unicode="&#x20;" horiz-adv-x="256" d="" />
<glyph unicode="&#xe900;" glyph-name="notice" d="M675.942-72.038h-329.779c-19.405 0-35.43-15.616-35.43-35.43s15.616-35.43 35.43-35.43h329.779c19.405 0 35.43 15.616 35.43 35.43s-15.616 35.43-35.43 35.43v0zM925.389 47.514c0 0 0 0.41 0 0 0.358 2.304 0.768 4.198 0.768 6.093v1.536c0 1.894 0.358 3.789 0.358 5.734v0.358c0 1.536 0 3.021-0.358 4.966v1.536c0 1.536-0.358 2.662-0.358 4.198 0 0.358 0 0.768-0.358 1.126-0.358 1.536-0.768 3.43-1.126 4.966 0 0.358-0.358 0.768-0.358 1.536l-1.126 3.43c-0.358 0.358-0.358 1.126-0.768 1.536-0.358 1.126-1.126 2.304-1.536 3.43 0 0.358-0.358 0.768-0.358 1.126-0.768 1.126-1.126 2.662-1.894 3.789l-78.848 139.008v194.97c0 60.16-22.067 123.392-61.696 178.227-33.126 45.722-78.080 82.278-127.59 106.65-1.126 37.325-16.742 71.219-41.882 95.59l-0.358 0.358c-1.536 1.536-3.021 3.021-4.557 4.198-0.358 0.358-0.768 0.358-0.768 0.768-1.126 1.126-2.662 2.304-4.198 3.43-0.358 0.358-1.126 0.768-1.536 1.126-1.229 0.717-2.406 1.843-3.533 2.611-0.768 0.768-1.894 1.126-2.662 1.894s-1.894 1.126-2.662 1.894l-3.43 2.304c-0.768 0.358-1.126 0.768-1.894 1.126-1.536 0.768-3.021 1.894-4.557 2.662-0.358 0-0.768 0.358-1.126 0.768-1.894 1.126-3.789 1.894-5.734 3.021-17.92 8.755-38.093 13.312-59.392 13.312-21.35 0-41.523-4.966-59.392-13.312-1.946-0.717-3.84-1.843-5.786-2.97-0.358 0-0.768-0.358-1.126-0.768-1.536-0.768-3.021-1.894-4.557-2.662-0.768-0.41-1.126-0.768-1.894-1.178l-3.43-2.253c-0.768-0.768-1.894-1.178-2.662-1.946-0.768-0.717-1.946-1.126-2.662-1.894-1.178-0.768-2.304-1.894-3.43-2.662-0.41-0.358-1.178-0.768-1.536-1.126-1.536-1.126-2.662-2.304-4.198-3.43-0.358-0.358-0.768-0.358-0.768-0.768-1.536-1.536-3.021-2.662-4.557-4.198-25.139-24.371-40.755-58.266-41.882-95.59-49.51-24.371-94.054-60.928-127.59-106.598-39.987-54.835-61.696-118.067-61.696-178.227v-194.97l-78.848-139.008c-0.768-1.126-1.536-2.662-1.894-3.789-0.358-0.358-0.358-0.768-0.358-1.126-0.358-1.126-1.126-2.304-1.536-3.43-0.358-0.358-0.358-1.126-0.768-1.536l-1.126-3.43c0-0.358-0.358-0.768-0.358-1.536-0.358-1.536-0.768-3.43-1.126-4.966 0-0.358 0-0.768-0.358-1.126-0.358-1.126-0.358-2.662-0.358-4.198v-1.536c0-1.536-0.358-3.072-0.358-4.966v-0.358c0-1.894 0-3.789 0.358-5.734v-1.536c0.358-1.894 0.358-3.789 0.768-5.734v-0.358c0.358-1.894 0.768-3.789 1.536-5.734v-0.768c1.536-4.557 3.43-8.755 5.734-12.954 7.987-14.080 21.35-24.371 36.198-28.928 0.358 0 0.768-0.358 1.126-0.358 1.894-0.358 3.789-1.126 5.325-1.536h0.358c1.894-0.358 3.789-0.768 5.734-0.768h1.126c1.894 0 3.789-0.358 5.734-0.358h702.208c1.894 0 3.789 0 5.734 0.358h1.126c1.894 0.358 3.789 0.358 5.734 0.768h0.358c1.894 0.358 3.789 0.768 5.325 1.536 0.358 0 0.768 0.358 1.126 0.358 15.206 4.966 28.16 15.206 36.198 28.928 2.304 4.198 4.198 8.397 5.734 12.954v0.768c-0.512 1.587-0.154 3.482 0.256 5.376v0zM511.437 740.608h-1.894c-23.603 0-47.206-1.894-69.325-6.093 10.65 28.928 38.451 49.869 71.219 49.869s60.57-20.941 71.219-49.869c-22.067 4.198-45.722 6.093-69.325 6.093h-1.894zM165.274 63.13c0.768 1.126 1.894 2.304 2.662 3.789l79.616 140.134c0.768 1.536 1.126 3.072 1.894 4.557 0.358 2.304 0.358 4.198 0.358 6.451 0.358 1.894 0.358 3.789 0.358 5.734l1.536 86.426c0.768 1.894-0.358 5.325-0.358 7.629v109.722c0 96.358 75.008 197.632 174.029 235.366 23.245 7.629 42.65 12.186 59.392 14.49 7.987 1.126 17.152 1.536 26.266 1.536 9.165 0 18.278-0.358 26.266-1.536 16.742-2.304 36.198-7.219 59.392-14.49 99.379-37.683 174.029-138.598 174.029-235.366v-109.67c0-2.304-0.358-11.827 0.358-14.080l1.126-79.974c0-1.894 0.358-3.789 0.358-5.734 0-1.894 0-4.198 0.358-6.451 0.768-1.536 1.126-3.021 1.894-4.557l79.565-140.134c0.768-1.536 1.536-2.662 2.662-3.789h-691.763z" />
<glyph unicode="&#xe901;" glyph-name="new" d="M966.758 552.192h-819.098c-17.254 0-31.386-13.978-31.386-31.027v-85.299l-90.419-84.941 90.419-84.992v-83.098c0-17.050 14.131-30.976 31.386-30.976h819.098c17.254 0 31.386 13.978 31.386 30.976v338.33c0 17.050-14.131 31.027-31.386 31.027v0zM400.691 237.875h-49.818l-96.666 147.866c-5.018 7.68-8.653 13.875-10.906 18.586h-0.768c0.87-7.885 1.331-20.019 1.331-36.454v-129.997h-46.131v228.608h53.043l93.133-143.77c6.195-9.523 9.984-15.565 11.366-18.176h0.717c-0.973 5.53-1.485 16.026-1.485 31.642v130.304h46.131l0.051-228.608zM584.499 237.875h-135.168v228.608h129.843v-39.834h-81.203v-53.862h75.469v-39.731h-75.469v-55.347h86.528v-39.834zM851.712 237.875h-54.067l-38.912 149.043c-2.099 8.243-3.328 16.742-3.686 25.242h-0.563c-0.973-10.24-2.355-18.637-4.096-25.242l-39.834-149.043h-56.218l-60.877 228.608h53.35l33.894-154.982c1.485-6.81 2.509-15.36 3.123-25.702h1.024c0.512 8.090 1.997 16.896 4.557 26.419l42.445 154.266h51.712l38.605-156.16c1.587-6.195 2.816-14.234 3.686-24.166h0.768c0.41 8.55 1.485 16.947 3.328 25.088l33.178 155.29h49.357l-60.774-228.659z" />
<glyph unicode="&#xe904;" glyph-name="online-i" d="M511.846-46.848c-8.192 0-16.179 3.072-22.477 9.37l-95.078 95.078c-12.442 12.442-12.442 32.358 0 44.8s32.358 12.442 44.8 0l72.755-72.755 72.755 72.755c5.939 5.939 13.978 9.37 22.477 9.37h221.798c17.562 0 31.693 14.131 31.693 31.693v506.931c0 17.357-14.131 31.693-31.693 31.693h-633.754c-17.357 0-31.693-14.285-31.693-31.693v-506.982c0-17.562 14.285-31.693 31.693-31.693h95.078c17.562 0 31.693-14.131 31.693-31.693s-14.131-31.693-31.693-31.693h-95.078c-52.48 0-95.078 42.598-95.078 95.078v506.982c0 52.48 42.598 95.078 95.078 95.078h633.702c52.48 0 95.078-42.598 95.078-95.078v-506.982c0-52.48-42.598-95.078-95.078-95.078h-208.845l-85.709-85.862c-6.093-6.093-14.285-9.318-22.426-9.318v0zM337.562 365.261c-26.214 0-47.514 21.299-47.514 47.514s21.299 47.514 47.514 47.514c26.214 0 47.514-21.299 47.514-47.514s-21.299-47.514-47.514-47.514v0zM527.667 365.261c-26.214 0-47.514 21.299-47.514 47.514s21.299 47.514 47.514 47.514c26.214 0 47.514-21.299 47.514-47.514s-21.248-47.514-47.514-47.514v0zM717.978 365.261c-26.214 0-47.514 21.299-47.514 47.514s21.299 47.514 47.514 47.514c26.214 0 47.514-21.299 47.514-47.514s-21.453-47.514-47.514-47.514v0z" />
<glyph unicode="&#xe905;" glyph-name="onlineinterview" d="M511.744 182.528c-98.56 0-178.739 80.179-178.739 178.739v219.904c0 98.56 80.179 178.739 178.739 178.739s178.739-80.179 178.739-178.739v-219.904c0-98.56-80.179-178.739-178.739-178.739v0zM764.774 391.322c-16.486 0-29.85-13.363-29.85-29.85 0-121.344-97.434-220.314-218.163-222.822-3.328 0.563-6.656 0.563-9.984 0-120.525 2.765-217.702 101.683-217.702 222.822 0 16.486-13.363 29.85-29.85 29.85s-29.85-13.363-29.85-29.85c-0.102-144.486 108.851-265.728 252.518-281.037v-76.646h-119.040c-16.486 0-29.85-13.363-29.85-29.85s13.363-29.85 29.85-29.85h297.779c16.486 0 29.85 13.363 29.85 29.85s-13.363 29.85-29.85 29.85h-119.040v76.595c143.872 15.053 253.133 136.397 252.979 281.088 0.051 16.486-13.312 29.85-29.798 29.85v0z" />
<glyph unicode="&#xe906;" glyph-name="public-s" d="M509.338 501.453c-0.512 0-1.024 0-1.536 0-1.126 0-2.253-0.051-3.328-0.051h-0.358c-11.776-0.461-23.398-2.253-34.765-5.427v-97.229l-101.222-0.102c-5.376-14.438-8.448-25.549-9.216-40.909v-0.563c-0.102-2.099-0.154-4.198-0.154-6.298 0-83.149 67.379-150.63 150.579-150.63 12.698 0 25.344 1.587 37.632 4.71 64.922 16.691 112.947 75.674 112.947 145.869 0 83.2-67.43 150.63-150.579 150.63zM509.338 707.482c-275.558 0-406.886-358.81-406.886-358.81s131.328-358.861 406.886-358.861c275.558 0 413.286 358.861 413.286 358.861s-137.728 358.81-413.286 358.81zM509.338 92.314c-143.309 0-259.533 116.173-259.533 259.533s116.224 259.533 259.533 259.533c143.309 0 259.482-116.173 259.482-259.533 0-143.309-116.173-259.533-259.482-259.533z" />
<glyph unicode="&#xe907;" glyph-name="sina2" d="M453.734 15.514c-11.11 0-22.118 0.41-32.717 1.229-192.461 15.206-301.517 90.163-315.392 216.781-0.358 2.714-8.806 75.93 60.467 168.499 3.738 5.274 98.816 136.704 212.941 175.77 24.269 8.243 45.875 12.442 64.307 12.442 53.043 0 83.507-34.15 83.507-93.645l-0.307-3.482c-0.922-4.966-1.997-9.677-2.918-13.978l-0.666-3.072 3.686 1.126 0.307-0.922c28.723 17.203 93.542 25.856 103.68 25.856 28.826 0 51.507-8.038 67.379-23.962 33.587-33.587 23.91-78.592 12.032-102.451 22.528-4.557 70.502-24.832 92.979-69.376 17.613-34.918 15.77-75.674-5.53-121.088-52.48-111.462-212.634-169.728-343.757-169.728v0zM443.29 552.192c-14.234 0-31.744-3.482-52.019-10.394-102.656-35.123-193.587-160.922-194.509-162.202-59.597-79.616-53.453-141.107-53.35-141.722 14.694-134.298 160.717-173.773 280.627-183.194 9.882-0.768 19.814-1.126 29.747-1.126 116.173 0 264.090 51.814 309.248 147.763 16.077 34.304 18.125 63.795 5.99 87.757-16.486 32.666-54.528 46.848-66.611 49.254-17.92 3.482-29.133 11.366-33.178 23.45-3.686 10.957 0.358 21.709 5.427 28.365 3.226 5.939 19.2 38.195-3.635 60.979-8.499 8.499-22.118 12.8-40.499 12.8-28.109 0-58.982-9.933-76.339-16.538l0.358-1.485-16.691-5.171c-10.803-3.379-18.995-4.915-25.702-4.915-12.442 0-19.456 5.478-23.142 10.086-9.216 11.52-5.99 26.010-2.56 41.421 0.768 3.43 1.587 7.066 2.304 10.957-0.563 47.77-24.525 53.914-45.466 53.914v0zM419.738 96.973c-103.066 0-180.787 54.784-180.787 127.437 0 74.445 82.637 134.4 192.256 139.418 112.794 5.171 194.202-45.158 194.202-118.477 0-76.8-86.374-143.206-192.512-148.019-4.352-0.256-8.806-0.358-13.158-0.358v0zM446.669 326.144c-4.506 0-9.062-0.102-13.722-0.307-86.016-3.942-156.006-49.459-156.006-101.427 0-50.125 62.72-89.395 142.746-89.395 3.789 0 7.629 0.102 11.469 0.307 83.251 3.789 156.211 55.194 156.211 110.080 0.102 46.797-59.136 80.742-140.698 80.742v0zM399.411 161.587c-41.984 0-73.677 24.781-73.677 57.651 0 36.147 34.97 68.557 77.926 72.346 3.584 0.307 6.963 0.41 10.24 0.41 44.749 0 77.261-25.395 77.261-60.314 0-34.714-35.584-65.28-80.947-69.53-3.584-0.41-7.219-0.563-10.803-0.563v0zM413.952 254.003c-2.355 0-4.762-0.102-7.117-0.307-25.293-2.202-43.059-19.917-43.059-34.458 0-11.008 15.667-19.661 35.635-19.661 2.355 0 4.762 0.102 7.219 0.358 26.726 2.509 46.592 18.79 46.592 31.693-0.051 12.954-16.538 22.374-39.27 22.374v0zM888.781 383.642c-5.837 0-11.315 2.662-14.899 7.219s-4.915 10.496-3.584 16.179c20.224 85.453 11.469 149.197-25.907 189.491-65.946 70.912-200.704 50.176-202.035 49.92-6.707-1.075-13.466 1.485-17.766 6.758s-5.427 12.442-3.021 18.79c2.406 6.349 8.038 10.906 14.746 11.981 6.349 1.024 156.365 24.013 235.93-61.594 46.592-50.125 58.368-125.542 35.072-224.102-2.15-8.755-9.933-14.643-18.534-14.643v0zM790.016 416.973c-5.632 0-10.957 2.458-14.541 6.758-3.635 4.301-5.171 9.984-4.198 15.514 6.656 38.605 1.229 66.97-16.23 84.429-32.307 32.256-96.973 21.504-97.69 21.402-4.966-0.87-10.086 0.256-14.182 3.174-4.147 2.918-6.912 7.322-7.782 12.288-1.792 10.342 5.069 20.173 15.411 22.016 3.482 0.614 84.634 14.387 131.021-31.846 26.778-26.675 35.84-66.355 26.931-117.914-1.587-9.165-9.472-15.821-18.739-15.821v0z" />
<glyph unicode="&#xe908;" glyph-name="sina" d="M833.075 669.286h-642.15c-50.278 0-91.187-40.909-91.187-91.238v-452.096c0-50.278 40.909-91.238 91.187-91.238h642.15c50.278 0 91.187 40.909 91.187 91.238v452.096c0.051 50.33-40.858 91.238-91.187 91.238v0zM190.925 614.861h642.15c20.275 0 36.813-16.486 36.813-36.813v-1.69l-322.099-234.035c-19.046-13.824-52.531-13.875-71.578 0l-322.099 234.086v1.638c0 20.326 16.538 36.813 36.813 36.813v0zM833.075 89.139h-642.15c-20.275 0-36.813 16.486-36.813 36.813v383.181l290.099-210.79c18.995-13.824 43.418-20.736 67.789-20.736s48.794 6.912 67.789 20.736l290.099 210.79v-383.181c0-20.326-16.538-36.813-36.813-36.813v0z" />
<glyph unicode="&#xe909;" glyph-name="complaints" d="M861.747 292.864h-92.058c-24.115 0-43.571 19.558-43.571 43.827v4.762c0 24.218 19.456 43.827 43.52 43.827h92.109c24.064 0 43.622-19.558 43.52-43.725l0.051-4.813c0.051-24.269-19.507-43.878-43.571-43.878v0zM861.747 402.176h-92.16c-24.013 0-43.571 19.507-43.571 43.725v4.762c0 24.218 19.558 43.827 43.571 43.827h10.803v0.051h23.808v179.456l-397.005 0.102v-97.997c37.99 21.453 71.322 40.038 87.552 48.486 51.456 26.88 81.152-5.888 72.243-44.749-6.861-29.952-57.498-62.976-110.848-104.448-10.547-8.192-29.030-20.429-48.947-33.178v-397.619h397.056v29.645h-34.611c-24.115 0-43.571 19.61-43.571 43.725v4.915c0 24.166 19.456 43.725 43.52 43.725h92.109c24.064 0 43.52-19.558 43.622-43.725l-0.051-4.71c0.051-24.218-19.456-43.827-43.622-43.827h-10.752v-0.051h-8.397v-76.749c0-30.362-24.781-55.347-55.142-55.347h-363.418c-30.31 0-55.091 24.934-55.091 55.347v62.925h-66.202c0 0-97.792 0.358-150.835 80.896-0.512 0.819-1.126 1.587-1.638 2.406-2.253 3.635-4.352 7.322-6.349 11.11-1.741 3.226-3.43 6.554-5.018 10.035-1.536 3.328-3.072 6.554-4.454 10.086-2.867 7.373-5.325 14.899-7.373 22.528-0.614 2.355-1.024 4.915-1.587 7.373-1.638 7.168-3.021 14.387-3.994 21.709-0.41 2.918-0.768 5.837-1.126 8.806-1.178 10.803-1.792 21.658-1.792 32.563 0 129.434 60.16 184.218 101.171 201.216 0.154 0.102 75.827 43.571 149.146 85.299v152.064c0 30.464 24.781 55.347 55.091 55.347h363.52c30.31 0 55.091-24.883 55.091-55.347v-211.917h19.251c24.013 0 43.571-19.661 43.52-43.725v-4.864c0.051-24.32-19.456-43.878-43.52-43.878v0zM605.696-30.208c15.258 0 27.546 12.339 27.546 27.648s-12.288 27.699-27.546 27.699c-15.206 0-27.443-12.39-27.494-27.648-0.051-15.36 12.237-27.699 27.494-27.699v0zM663.859 721.92h-116.275c-3.686 0-6.707-3.021-6.707-6.707s3.021-6.707 6.707-6.707h116.275c1.741 0 3.482 0.717 4.71 1.946s1.946 2.97 1.946 4.71c0 1.792-0.666 3.482-1.894 4.762-1.28 1.28-2.97 1.997-4.762 1.997v0zM861.696 183.552h-92.058c-24.064 0-43.571 19.558-43.571 43.725v4.813c0 24.166 19.558 43.827 43.571 43.827h92.109c24.115 0 43.52-19.661 43.52-43.827l0.051-4.813c-0.102-24.166-19.507-43.725-43.622-43.725v0z" />
<glyph unicode="&#xe90a;" glyph-name="public-s2" d="M826.061 693.658h-628.122c-52.531 0-95.181-42.752-95.181-95.334v-377.395c0-52.582 42.65-95.334 95.181-95.334h65.997l58.47-77.824c3.584-4.813 16.742-19.968 36.198-19.968 9.318 0 22.938 3.533 35.738 20.429l57.958 77.363h373.658c52.634 0 95.283 42.752 95.283 95.334v377.344c0.102 52.634-42.65 95.386-95.181 95.386zM884.634 220.877c0-32.461-26.214-58.726-58.573-58.726h-382.72c-5.734 0-11.162-2.765-14.643-7.424l-63.642-84.634c-3.584-4.813-5.939-5.734-6.451-5.734-1.28 0-4.966 2.509-7.424 5.734l-63.642 84.634c-3.482 4.659-8.806 7.424-14.541 7.424h-75.059c-32.358 0-58.675 26.368-58.675 58.726v377.395c0 32.461 26.317 58.778 58.675 58.778h628.019c32.461 0 58.675-26.317 58.675-58.778v-377.395zM751.974 424.704h-481.997c-9.984 0-18.278-8.243-18.278-18.278 0-10.189 8.294-18.33 18.278-18.33h481.997c10.086 0 18.176 8.243 18.176 18.33 0 10.035-8.090 18.278-18.176 18.278zM751.974 314.829h-481.997c-9.984 0-18.278-8.192-18.278-18.176 0-10.189 8.294-18.381 18.278-18.381h481.997c10.086 0 18.176 8.192 18.176 18.381 0 9.933-8.090 18.176-18.176 18.176zM269.978 496.333h290.406c10.086 0 18.278 8.243 18.278 18.278s-8.192 18.278-18.278 18.278h-290.406c-9.984 0-18.278-8.243-18.278-18.278s8.192-18.278 18.278-18.278z" />
<glyph unicode="&#xe90b;" glyph-name="suggest" d="M759.091 3.635h-393.472c-2.15-1.178-4.198-2.509-6.502-3.43l-142.438-57.549h542.413c16.845 0 30.464 13.67 30.464 30.464 0 16.896-13.67 30.515-30.464 30.515v0zM913.664 634.010l-123.443 123.392c-9.523 9.523-24.934 9.523-34.458 0l-560.077-560.077c-2.304-2.304-4.147-5.069-5.376-8.090l-83.507-206.95c-3.686-9.062-1.536-19.405 5.376-26.368 4.659-4.659 10.906-7.168 17.203-7.168 3.072 0 6.144 0.563 9.114 1.792l206.95 83.507c3.021 1.229 5.837 3.072 8.090 5.376l560.128 560.128c4.557 4.557 7.117 10.752 7.117 17.203 0 6.502-2.56 12.698-7.117 17.254v0zM322.611 77.414l-80.845-32.614-40.755 40.755 32.614 80.845 539.392 539.341 40.96-40.909-513.178-513.178c-4.762-4.762-4.762-12.442 0-17.203 2.406-2.406 5.478-3.584 8.602-3.584s6.246 1.178 8.602 3.584l513.178 513.126 30.771-30.771-539.341-539.392z" />
<glyph unicode="&#xf093;" glyph-name="upload_alt" horiz-adv-x="951" d="M731.429 22.857q0 14.857-10.857 25.714t-25.714 10.857-25.714-10.857-10.857-25.714 10.857-25.714 25.714-10.857 25.714 10.857 10.857 25.714zM877.714 22.857q0 14.857-10.857 25.714t-25.714 10.857-25.714-10.857-10.857-25.714 10.857-25.714 25.714-10.857 25.714 10.857 10.857 25.714zM950.857 150.857v-182.857q0-22.857-16-38.857t-38.857-16h-841.143q-22.857 0-38.857 16t-16 38.857v182.857q0 22.857 16 38.857t38.857 16h244q12-32 40.286-52.571t63.143-20.571h146.286q34.857 0 63.143 20.571t40.286 52.571h244q22.857 0 38.857-16t16-38.857zM765.143 521.143q-9.714-22.857-33.714-22.857h-146.286v-256q0-14.857-10.857-25.714t-25.714-10.857h-146.286q-14.857 0-25.714 10.857t-10.857 25.714v256h-146.286q-24 0-33.714 22.857-9.714 22.286 8 39.429l256 256q10.286 10.857 25.714 10.857t25.714-10.857l256-256q17.714-17.143 8-39.429z" />
<glyph unicode="&#xf095;" glyph-name="phone" horiz-adv-x="805" d="M804.571 155.429q0-15.429-5.714-40.286t-12-39.143q-12-28.571-69.714-60.571-53.714-29.143-106.286-29.143-15.429 0-30.286 2t-32.857 7.143-26.857 8.286-31.714 11.714-28 10.286q-56 20-100 47.429-72.571 45.143-150.857 123.429t-123.429 150.857q-27.429 44-47.429 100-1.714 5.143-10.286 28t-11.714 31.714-8.286 26.857-7.143 32.857-2 30.286q0 52.571 29.143 106.286 32 57.714 60.571 69.714 14.286 6.286 39.143 12t40.286 5.714q8 0 12-1.714 10.286-3.429 30.286-43.429 6.286-10.857 17.143-30.857t20-36.286 17.714-30.571q1.714-2.286 10-14.286t12.286-20.286 4-16.286q0-11.429-16.286-28.571t-35.429-31.429-35.429-30.286-16.286-26.286q0-5.143 2.857-12.857t4.857-11.714 8-13.714 6.571-10.857q43.429-78.286 99.429-134.286t134.286-99.429q1.143-0.571 10.857-6.571t13.714-8 11.714-4.857 12.857-2.857q10.286 0 26.286 16.286t30.286 35.429 31.429 35.429 28.571 16.286q8 0 16.286-4t20.286-12.286 14.286-10q14.286-8.571 30.571-17.714t36.286-20 30.857-17.143q40-20 43.429-30.286 1.714-4 1.714-12z" />
<glyph unicode="&#xf100;" glyph-name="double_angle_left" horiz-adv-x="585" d="M358.286 77.714q0-7.429-5.714-13.143l-28.571-28.571q-5.714-5.714-13.143-5.714t-13.143 5.714l-266.286 266.286q-5.714 5.714-5.714 13.143t5.714 13.143l266.286 266.286q5.714 5.714 13.143 5.714t13.143-5.714l28.571-28.571q5.714-5.714 5.714-13.143t-5.714-13.143l-224.571-224.571 224.571-224.571q5.714-5.714 5.714-13.143zM577.714 77.714q0-7.429-5.714-13.143l-28.571-28.571q-5.714-5.714-13.143-5.714t-13.143 5.714l-266.286 266.286q-5.714 5.714-5.714 13.143t5.714 13.143l266.286 266.286q5.714 5.714 13.143 5.714t13.143-5.714l28.571-28.571q5.714-5.714 5.714-13.143t-5.714-13.143l-224.571-224.571 224.571-224.571q5.714-5.714 5.714-13.143z" />
<glyph unicode="&#xf101;" glyph-name="double_angle_right" horiz-adv-x="585" d="M340 315.429q0-7.429-5.714-13.143l-266.286-266.286q-5.714-5.714-13.143-5.714t-13.143 5.714l-28.571 28.571q-5.714 5.714-5.714 13.143t5.714 13.143l224.571 224.571-224.571 224.571q-5.714 5.714-5.714 13.143t5.714 13.143l28.571 28.571q5.714 5.714 13.143 5.714t13.143-5.714l266.286-266.286q5.714-5.714 5.714-13.143zM559.429 315.429q0-7.429-5.714-13.143l-266.286-266.286q-5.714-5.714-13.143-5.714t-13.143 5.714l-28.571 28.571q-5.714 5.714-5.714 13.143t5.714 13.143l224.571 224.571-224.571 224.571q-5.714 5.714-5.714 13.143t5.714 13.143l28.571 28.571q5.714 5.714 13.143 5.714t13.143-5.714l266.286-266.286q5.714-5.714 5.714-13.143z" />
<glyph unicode="&#xf102;" glyph-name="double_angle_up" horiz-adv-x="658" d="M614.286 114.286q0-7.429-5.714-13.143l-28.571-28.571q-5.714-5.714-13.143-5.714t-13.143 5.714l-224.571 224.571-224.571-224.571q-5.714-5.714-13.143-5.714t-13.143 5.714l-28.571 28.571q-5.714 5.714-5.714 13.143t5.714 13.143l266.286 266.286q5.714 5.714 13.143 5.714t13.143-5.714l266.286-266.286q5.714-5.714 5.714-13.143zM614.286 333.714q0-7.429-5.714-13.143l-28.571-28.571q-5.714-5.714-13.143-5.714t-13.143 5.714l-224.571 224.571-224.571-224.571q-5.714-5.714-13.143-5.714t-13.143 5.714l-28.571 28.571q-5.714 5.714-5.714 13.143t5.714 13.143l266.286 266.286q5.714 5.714 13.143 5.714t13.143-5.714l266.286-266.286q5.714-5.714 5.714-13.143z" />
<glyph unicode="&#xf103;" glyph-name="double_angle_down" horiz-adv-x="658" d="M614.286 370.286q0-7.429-5.714-13.143l-266.286-266.286q-5.714-5.714-13.143-5.714t-13.143 5.714l-266.286 266.286q-5.714 5.714-5.714 13.143t5.714 13.143l28.571 28.571q5.714 5.714 13.143 5.714t13.143-5.714l224.571-224.571 224.571 224.571q5.714 5.714 13.143 5.714t13.143-5.714l28.571-28.571q5.714-5.714 5.714-13.143zM614.286 589.714q0-7.429-5.714-13.143l-266.286-266.286q-5.714-5.714-13.143-5.714t-13.143 5.714l-266.286 266.286q-5.714 5.714-5.714 13.143t5.714 13.143l28.571 28.571q5.714 5.714 13.143 5.714t13.143-5.714l224.571-224.571 224.571 224.571q5.714 5.714 13.143 5.714t13.143-5.714l28.571-28.571q5.714-5.714 5.714-13.143z" />
<glyph unicode="&#xf104;" glyph-name="angle_left" horiz-adv-x="366" d="M358.286 553.143q0-7.429-5.714-13.143l-224.571-224.571 224.571-224.571q5.714-5.714 5.714-13.143t-5.714-13.143l-28.571-28.571q-5.714-5.714-13.143-5.714t-13.143 5.714l-266.286 266.286q-5.714 5.714-5.714 13.143t5.714 13.143l266.286 266.286q5.714 5.714 13.143 5.714t13.143-5.714l28.571-28.571q5.714-5.714 5.714-13.143z" />
<glyph unicode="&#xf105;" glyph-name="angle_right" horiz-adv-x="366" d="M340 315.429q0-7.429-5.714-13.143l-266.286-266.286q-5.714-5.714-13.143-5.714t-13.143 5.714l-28.571 28.571q-5.714 5.714-5.714 13.143t5.714 13.143l224.571 224.571-224.571 224.571q-5.714 5.714-5.714 13.143t5.714 13.143l28.571 28.571q5.714 5.714 13.143 5.714t13.143-5.714l266.286-266.286q5.714-5.714 5.714-13.143z" />
<glyph unicode="&#xf106;" glyph-name="angle_up" horiz-adv-x="658" d="M614.286 187.429q0-7.429-5.714-13.143l-28.571-28.571q-5.714-5.714-13.143-5.714t-13.143 5.714l-224.571 224.571-224.571-224.571q-5.714-5.714-13.143-5.714t-13.143 5.714l-28.571 28.571q-5.714 5.714-5.714 13.143t5.714 13.143l266.286 266.286q5.714 5.714 13.143 5.714t13.143-5.714l266.286-266.286q5.714-5.714 5.714-13.143z" />
<glyph unicode="&#xf107;" glyph-name="angle_down" horiz-adv-x="658" d="M614.286 443.429q0-7.429-5.714-13.143l-266.286-266.286q-5.714-5.714-13.143-5.714t-13.143 5.714l-266.286 266.286q-5.714 5.714-5.714 13.143t5.714 13.143l28.571 28.571q5.714 5.714 13.143 5.714t13.143-5.714l224.571-224.571 224.571 224.571q5.714 5.714 13.143 5.714t13.143-5.714l28.571-28.571q5.714-5.714 5.714-13.143z" />
<glyph unicode="&#xf10c;" glyph-name="circle_blank" d="M438.857 662.857q-84.571 0-156-41.714t-113.143-113.143-41.714-156 41.714-156 113.143-113.143 156-41.714 156 41.714 113.143 113.143 41.714 156-41.714 156-113.143 113.143-156 41.714zM877.714 352q0-119.429-58.857-220.286t-159.714-159.714-220.286-58.857-220.286 58.857-159.714 159.714-58.857 220.286 58.857 220.286 159.714 159.714 220.286 58.857 220.286-58.857 159.714-159.714 58.857-220.286z" />
<glyph unicode="&#xf10d;" glyph-name="quote_left" horiz-adv-x="951" d="M438.857 315.429v-219.429q0-45.714-32-77.714t-77.714-32h-219.429q-45.714 0-77.714 32t-32 77.714v402.286q0 59.429 23.143 113.429t62.571 93.429 93.429 62.571 113.429 23.143h36.571q14.857 0 25.714-10.857t10.857-25.714v-73.143q0-14.857-10.857-25.714t-25.714-10.857h-36.571q-60.571 0-103.429-42.857t-42.857-103.429v-18.286q0-22.857 16-38.857t38.857-16h128q45.714 0 77.714-32t32-77.714zM950.857 315.429v-219.429q0-45.714-32-77.714t-77.714-32h-219.429q-45.714 0-77.714 32t-32 77.714v402.286q0 59.429 23.143 113.429t62.571 93.429 93.429 62.571 113.429 23.143h36.571q14.857 0 25.714-10.857t10.857-25.714v-73.143q0-14.857-10.857-25.714t-25.714-10.857h-36.571q-60.571 0-103.429-42.857t-42.857-103.429v-18.286q0-22.857 16-38.857t38.857-16h128q45.714 0 77.714-32t32-77.714z" />
<glyph unicode="&#xf10e;" glyph-name="quote_right" horiz-adv-x="951" d="M438.857 681.143v-402.286q0-59.429-23.143-113.429t-62.571-93.429-93.429-62.571-113.429-23.143h-36.571q-14.857 0-25.714 10.857t-10.857 25.714v73.143q0 14.857 10.857 25.714t25.714 10.857h36.571q60.571 0 103.429 42.857t42.857 103.429v18.286q0 22.857-16 38.857t-38.857 16h-128q-45.714 0-77.714 32t-32 77.714v219.429q0 45.714 32 77.714t77.714 32h219.429q45.714 0 77.714-32t32-77.714zM950.857 681.143v-402.286q0-59.429-23.143-113.429t-62.571-93.429-93.429-62.571-113.429-23.143h-36.571q-14.857 0-25.714 10.857t-10.857 25.714v73.143q0 14.857 10.857 25.714t25.714 10.857h36.571q60.571 0 103.429 42.857t42.857 103.429v18.286q0 22.857-16 38.857t-38.857 16h-128q-45.714 0-77.714 32t-32 77.714v219.429q0 45.714 32 77.714t77.714 32h219.429q45.714 0 77.714-32t32-77.714z" />
<glyph unicode="&#xf192;" glyph-name="dot_circle_alt" d="M585.143 352q0-60.571-42.857-103.429t-103.429-42.857-103.429 42.857-42.857 103.429 42.857 103.429 103.429 42.857 103.429-42.857 42.857-103.429zM438.857 662.857q-84.571 0-156-41.714t-113.143-113.143-41.714-156 41.714-156 113.143-113.143 156-41.714 156 41.714 113.143 113.143 41.714 156-41.714 156-113.143 113.143-156 41.714zM877.714 352q0-119.429-58.857-220.286t-159.714-159.714-220.286-58.857-220.286 58.857-159.714 159.714-58.857 220.286 58.857 220.286 159.714 159.714 220.286 58.857 220.286-58.857 159.714-159.714 58.857-220.286z" />
<glyph unicode="&#xf1c2;" glyph-name="_422" d="M838.857 646.857q16-16 27.429-43.429t11.429-50.286v-658.286q0-22.857-16-38.857t-38.857-16h-768q-22.857 0-38.857 16t-16 38.857v914.286q0 22.857 16 38.857t38.857 16h512q22.857 0 50.286-11.429t43.429-27.429zM585.143 786.286v-214.857h214.857q-5.714 16.571-12.571 23.429l-178.857 178.857q-6.857 6.857-23.429 12.571zM804.571-86.857v585.143h-237.714q-22.857 0-38.857 16t-16 38.857v237.714h-438.857v-877.714h731.429zM133.143 425.143v-61.143h40l93.714-377.714h90.857l73.143 277.143q4 11.429 5.714 26.286 1.143 9.143 1.143 13.714h2.286l1.714-13.714q0.571-1.714 2-11.429t3.143-14.857l73.143-277.143h90.857l93.714 377.714h40v61.143h-171.429v-61.143h51.429l-56.571-250.286q-2.857-11.429-4-26.286l-1.143-12h-2.286q0 1.714-0.286 3.714t-0.857 4.571-0.571 3.714q-0.571 2.857-2.286 12t-2.857 14.286l-82.286 311.429h-65.143l-82.286-311.429q-1.143-5.143-2.571-14t-2-12.286l-2.286-12h-2.286l-1.143 12q-1.143 14.857-4 26.286l-56.571 250.286h51.429v61.143h-171.429z" />
<glyph unicode="&#xf277;" glyph-name="_592" d="M997.143 694.286q5.714-5.714 5.714-13.143t-5.714-13.143l-80.571-80.571q-16-16-38.857-16h-768q-14.857 0-25.714 10.857t-10.857 25.714v146.286q0 14.857 10.857 25.714t25.714 10.857h329.143v36.571q0 14.857 10.857 25.714t25.714 10.857h73.143q14.857 0 25.714-10.857t10.857-25.714v-36.571h292.571q22.857 0 38.857-16zM438.857 169.143h146.286v-292.571q0-14.857-10.857-25.714t-25.714-10.857h-73.143q-14.857 0-25.714 10.857t-10.857 25.714v292.571zM914.286 425.143q14.857 0 25.714-10.857t10.857-25.714v-146.286q0-14.857-10.857-25.714t-25.714-10.857h-768q-22.857 0-38.857 16l-80.571 80.571q-5.714 5.714-5.714 13.143t5.714 13.143l80.571 80.571q16 16 38.857 16h292.571v109.714h146.286v-109.714h329.143z" />
</font>
</defs>
</svg>
