<svg id="图层_1" data-name="图层 1" xmlns="http://www.w3.org/2000/svg" viewBox="0 0 1279.54 49.05"><defs><style>.cls-1{fill:#006bd5;}</style></defs><title>市级综合粮食管理和服务平台logo</title><path class="cls-1" d="M24.59,37.62l-14,17.16H.07L19,31.52H1.82V25.61H20V14.21H1.57v-6h47.1l-2.82,6H28.58v11.4H48.51l-2.74,5.91H30.21L49,54.78H38.43Z" transform="translate(-0.07 -7.05)"/><path class="cls-1" d="M60,22.76a5.18,5.18,0,0,1,2.25.6A4.09,4.09,0,0,1,64,25.06a4.94,4.94,0,0,1,.64,2.39,4.44,4.44,0,0,1-.6,2.32,4.69,4.69,0,0,1-4,2.34,4.4,4.4,0,0,1-2.32-.61A4.55,4.55,0,0,1,56,29.78a4.84,4.84,0,0,1,0-4.72,4.18,4.18,0,0,1,1.7-1.71A4.69,4.69,0,0,1,60,22.76ZM60,7.91a4.59,4.59,0,0,1,2.2.6,4.31,4.31,0,0,1,1.73,1.71,4.73,4.73,0,0,1,.65,2.35,4.35,4.35,0,0,1-.62,2.3,4.86,4.86,0,0,1-1.7,1.7,4.25,4.25,0,0,1-2.26.61,4.52,4.52,0,0,1-4.57-4.65A4.69,4.69,0,0,1,56,10.21a4.2,4.2,0,0,1,1.73-1.69A4.94,4.94,0,0,1,60,7.91Zm-3.76,29.4h7.69V52.47l-7.69,3.15Zm21.46,7.16V41.35H67.83v-5.1h9.86V33.53h-9.3V28.27h9.3V24.18H67.23V18.93H77.69V15.15h-9.3V10h9.3V7.66h8.07V10H97.9v9h2.49l-1.55,5.25H97.9v4.09l-5.59,5.26H85.76v2.72H99.19l-2.41,5.1h-11v3.12H99.6l-2.41,5.21H85.76v2.69l-8.07,3.45V49.68H67.2V44.47Zm8.07-29.32v3.78h4.11V15.15Zm0,13.12h4.11V24.18H85.76Z" transform="translate(-0.07 -7.05)"/><path class="cls-1" d="M123.72,10.6a5.69,5.69,0,0,1,2.2-2.49,5.47,5.47,0,0,1,5.63,0,5.79,5.79,0,0,1,2.22,2.49h18.34l-2.67,5.79H132.61v3.43h18V46.53l-8.07,6.27h-5.92v-6h5.92V25.89h-9.9V50.82l-8.2,3.86V25.89h-9.88V49.12l-8,3.68v-33h17.93V16.39H106V10.6Z" transform="translate(-0.07 -7.05)"/><path class="cls-1" d="M165.16,36.12,163,52.47h-6.14L160,29h5.13V27.26h-7.7V21.49h7.7V7.58h7V21.49h7.42l-2.67,5.77h-4.75V29h5.26l2.74,23.57H174l-1.86-17.07V52.7l-7,2.82Zm-.43-16.28h-5.82L157.13,9.13h5.79ZM174.5,9.13h5.61l-1.75,10.71h-5.84Zm6.42.79h6.5a16,16,0,0,1,1.12-1.57,3.39,3.39,0,0,1,2.71-1,6.81,6.81,0,0,1,3,.48A3.85,3.85,0,0,1,195.8,9.1l.54.82H203V28.15L196.18,34h-8.43V49.37h4.75l-2.41,5.23h-9.17Zm15.19,5.43h-8.36v4.49h7.93L193.44,25h-5.69v3.63h8.36Zm.94,22.22,6.47-2.24-1.24,6.27-3.15,1.15,4.62,11.57h-7.41L189,35.81h7.34Z" transform="translate(-0.07 -7.05)"/><path class="cls-1" d="M218.12,8.11H246.2l9.45,10.16-10.66,0-4.57-4.87H223.81L220,18.29l-10.59,0Zm36.29,11.83V36.37l-8.84,5.41-26.25,0v7.33l10.76,0v5.74h-19.3V19.94l16.79,0a19.86,19.86,0,0,1,1.51-1.71,3.74,3.74,0,0,1,2.82-1.1,8,8,0,0,1,3.06.51A4.89,4.89,0,0,1,236.91,19l.79.94ZM243.74,28.6l-2.31,4.78H219.32v3.25l26.48,0V25.15H219.32V28.6Zm-6.17,17.12L252.12,40l-1.24,6.53-7.6,2.94h12.09l-2.49,5.18-13.56.05-16-11.6h10.38Z" transform="translate(-0.07 -7.05)"/><path class="cls-1" d="M261.21,52.83l1.9-25.37h6.43l-1.73,25.37Zm17-28V53.69l-7.16,2.41V24.84h-9.27V19.21h9.27V15.42l-9.35.87v-6L287.36,8l-1.52,5.89-7.59,1v4.39H288l-2.56,5.63Zm7.64,2.62,1.62,25.37h-6.29l-1.55-25.37ZM307.52,8.19v39l-6.29,6.8H289V8.19Zm-7.16,5.89h-4.31V48l4.34,0Z" transform="translate(-0.07 -7.05)"/><path class="cls-1" d="M328.67,24.57h3.76l-3.76,6.5V52.83l-7,2.84V42.54l-1.15,2.08H312.8L321.67,30V19.18h-1.78L319.33,26h-6.78l1.68-16.33,6.62,0-.33,3.7h1.15V8h7v5.43h4l-2.51,5.79h-1.45Zm1.22,27.87,6.53-30.36h6.83l-6.43,30.36Zm19,2.24V48.94h3.66V15.22H340.5l-1.37,4.88h-7.28l3.22-12.5h7.39l-.58,2.09h17.9V48.36l-6.68,6.32Zm-10.26-2.24L345,22.08h6.8l-6.06,30.36Z" transform="translate(-0.07 -7.05)"/><path class="cls-1" d="M371.79,20.6h8.48l-7.19,9.78h-9ZM385,39.72h8.16v4l19.06,11-12.46,0L389.15,49,378,54.91l-12.06,0L385,43.68ZM366,8.54h8.38l5.92,9.22-8.59,0Zm.33,23.9H411V45.23L403,48.1V38.17H374.38v8l-8.08,3Zm32.78-12.67h4.85l8.15,10.61h-8.56l-6.29-8.84-8.89,8.84H379l13.45-13.46h9.25Zm-8.35-4.9-1.12,2.92h-7.77L385.27,8h7.46l-.63,1.77h20.16v7.65l-7.59,2.46V14.87Z" transform="translate(-0.07 -7.05)"/><path class="cls-1" d="M426.53,17.2l0,34.74-7.64,3.53V24.39H416L421.5,7.53h8.25Zm10.69,4.88,0,27.65,2.87,0-2.56,5.49-7.52,0V27.82h-2.36V22.08ZM433.71,8.19a4.38,4.38,0,0,1,2.1.62,4.15,4.15,0,0,1,1.61,1.75A5.3,5.3,0,0,1,438,13a4.82,4.82,0,0,1-.59,2.3,4.52,4.52,0,0,1-1.6,1.65,4,4,0,0,1-2.17.59,4.4,4.4,0,0,1-2.2-.59,4.23,4.23,0,0,1-1.6-1.65,4.92,4.92,0,0,1,0-4.71,4.13,4.13,0,0,1,1.66-1.79A4.36,4.36,0,0,1,433.71,8.19Zm5.67,18.61V21.65h7.18V15.22h-6.85V9.84h6.85V7.53h7.62V9.84h9.16l-2.51,5.38h-6.65v6.32h1l1.35-3.35,7.16,0-1.22,3.12h2.11l-2.49,5.46H451.36l-1,2.06H463.5l0,19.85L456,54.63H440.65v-17l-2.47,0,5.28-10.87ZM453,44h-4.57v5.31l7.57,0,0-15.19h-7.51v4.55h7Z" transform="translate(-0.07 -7.05)"/><path class="cls-1" d="M483.91,23.35l-11.68-5.59,15.21,0,3.91,1.85,10-4.75H479.19l-1.35,1.86h-8.53l5.41-8.56h8l-.76,1.09h32.68l0,5.92-15.43,8,17.06,7.54-15.74,0-8.38-3.86-8.66,3.86H468.55Zm-14.19,9.21h45.4V48l-8,6.27H469.72Zm18.66,7.85V37.69H477.84v2.72Zm-10.54,5v3.55h10.54V45.39Zm28.69-5-2.23,5h-7.9v3.55H507V37.69H496.4v2.72Z" transform="translate(-0.07 -7.05)"/><path class="cls-1" d="M529.64,25.81h37.58l0,23.49-6.43,5.33L544,54.58v-4.8l15.61,0V30.68h-30v22l-7.59,2.82V8.34h44.53v9.19l-7.28,5.23H529.64ZM559,13.24H529.64v4.6H559ZM532.05,47.47V33.05h25.82v9.37l-5.63,5Zm7.62-9.55v4.72h10.56V37.92Z" transform="translate(-0.07 -7.05)"/><path class="cls-1" d="M604,29.19v4.39H572.7V29.19Z" transform="translate(-0.07 -7.05)"/><path class="cls-1" d="M627.47,10.6a5.69,5.69,0,0,1,2.2-2.49,5.47,5.47,0,0,1,5.63,0,5.79,5.79,0,0,1,2.22,2.49h18.34l-2.67,5.79H636.36v3.43h18V46.53l-8.07,6.27h-5.92v-6h5.92V25.89h-9.9V50.82l-8.2,3.86V25.89h-9.88V49.12l-8,3.68v-33h17.93V16.39H609.75V10.6Z" transform="translate(-0.07 -7.05)"/><path class="cls-1" d="M676,8l-8.31,15.44h2l2.49-4.75H680L669.42,38.35h10.41L677,44.19l-16.18,0,0-5.33,5.94-9.93h-6l0-7.84,7-13Zm2.69,41.06L676.35,55l-15.26,0V49.07Zm9.42-14.15-2.52,19.66h-7.38L683.43,14h-4.24V8h27.45v4.87L700,24.84l6.81,0,0,6-6,11.83,6.88,12.09h-8.27l-2.54-4.44-2.19,4.29-8.12,0,6.09-11.7Zm.45-3.55h5.79l2.26,3.94,2.39-4.6h-6.93V25l5.51-11h-6.78Z" transform="translate(-0.07 -7.05)"/><path class="cls-1" d="M727.46,8.19l-7.62,15h1.4l2.92-5.71h8.07L721.54,38.35h9.24l-2.61,6-15.24,0,.06-5.71,5.48-9.75h-5.69V21.7l6.38-13.51ZM731,48.64l-2.87,5.86-15.26,0V48.64Zm0,5.51L734,38.53h6.81l-2.9,15.62ZM732.23,30h28.11l-2.46,5.59h-8.26V48.86l-5.84,5.92H740V49.22h2.79V35.61H732.23Zm.59-9.8V10.14h8.76a11.59,11.59,0,0,1,.77-1.06,6.67,6.67,0,0,1,2-1.36,3.65,3.65,0,0,1,3.37.06A5.84,5.84,0,0,1,750,9.38l.51.76h8.94V17.2l-7.21,2.67V15.53H740v2.56Zm.07.74h27l-2.52,5.43H732.89Zm27.17,33-6.83,0-1.7-15.36h6.68Z" transform="translate(-0.07 -7.05)"/><path class="cls-1" d="M794.24,8.34l17,13.56H799.31l-10.76-8.48-11.28,8.5H765.21L782.86,8.34Zm16.93,17-2.28,5.38H765.65V25.33Zm-44.66,9H810V48l-8.56,5.94-34.91,0Zm35,5.36H774.94V48h26.58Z" transform="translate(-0.07 -7.05)"/><path class="cls-1" d="M824.91,36.12l-2.14,16.35h-6.14L819.78,29h5.13V27.26h-7.7V21.49h7.7V7.58h7V21.49h7.42l-2.67,5.77h-4.75V29h5.26l2.74,23.57h-6.14l-1.86-17.07V52.7l-7,2.82Zm-.43-16.28h-5.82L816.88,9.13h5.79Zm9.77-10.71h5.61l-1.75,10.71h-5.84Zm6.42.79h6.5a16,16,0,0,1,1.12-1.57,3.39,3.39,0,0,1,2.71-1,6.81,6.81,0,0,1,3,.48,3.85,3.85,0,0,1,1.57,1.31l.54.82h6.65V28.15L855.93,34H847.5V49.37h4.75l-2.41,5.23h-9.17Zm15.19,5.43H847.5v4.49h7.93L853.19,25H847.5v3.63h8.36Zm.94,22.22,6.47-2.24L862,41.6l-3.15,1.15,4.62,11.57h-7.41l-7.34-18.51h7.34Z" transform="translate(-0.07 -7.05)"/><path class="cls-1" d="M877.87,8.11H906l9.45,10.16-10.66,0-4.57-4.87H883.56l-3.86,4.87-10.59,0Zm36.29,11.83V36.37l-8.84,5.41-26.25,0v7.33l10.76,0v5.74h-19.3V19.94l16.79,0a19.86,19.86,0,0,1,1.51-1.71,3.74,3.74,0,0,1,2.82-1.1,8,8,0,0,1,3.06.51A4.89,4.89,0,0,1,896.66,19l.79.94ZM903.49,28.6l-2.31,4.78H879.07v3.25l26.48,0V25.15H879.07V28.6Zm-6.17,17.12L911.87,40l-1.24,6.53L903,49.47h12.09l-2.49,5.18-13.56.05L883,43.1h10.38Z" transform="translate(-0.07 -7.05)"/><path class="cls-1" d="M929.87,26.55v1.29l-8.48,2v-8h18.54a4.5,4.5,0,0,1,.43-.92l.58-.78H936.3L933,12.38H931.4l-2.32,8h-7.79L925,7.93h20.08l-2.41,4.45h-2.26l2.92,6.27a6.9,6.9,0,0,1,2,0l3-10.82h19.53l-2.36,4.55h-1.83l3.76,7.82h-7.65l-3.65-7.82h-1.37l-2.06,7.82H948c.36.51.7,1,1,1.6H967.2v5.05l-8.48,2.46V26.55Zm-6.32,3.32h42.22l.06,6.6-7.22,5.21L932,41.7v1.76h33.74l.06,5.94-7.14,5.13-35.14,0Zm33.77,4.52H932V37h25.29ZM932,47.54v2.37h25.29V47.54Z" transform="translate(-0.07 -7.05)"/><path class="cls-1" d="M989.59,8.09l-2.23,5.68h-2.62V28.22h4L986.37,34h-1.63v14.8H989l-2.46,5.79H973.06V48.81h4V34h-4V28.22h4V13.9h-4V8.09Zm-.43,41.31h11.5V44.73H990.25V39.5h10.41V34.67H990.43V8.32h28.28V28.7l-7.23,6h-3V39.5h10.11l-2.39,5.23h-7.72V49.4h11.68l-2.59,5.3H989.16Zm11.78-35.78H998.1V19h2.84Zm0,10.49H998.1v5.43h2.84Zm10.18-10.49h-2.92V19h2.92Zm-2.92,15.92h2.92V24.11h-2.92Z" transform="translate(-0.07 -7.05)"/><path class="cls-1" d="M1025,52.83l1.9-25.37h6.43l-1.73,25.37Zm17-28V53.69l-7.16,2.41V24.84h-9.27V19.21h9.27V15.42l-9.35.87v-6L1051.11,8l-1.52,5.89-7.59,1v4.39h9.77l-2.56,5.63Zm7.64,2.62,1.62,25.37H1045l-1.55-25.37Zm21.63-19.27v39l-6.29,6.8h-12.22V8.19Zm-7.16,5.89h-4.31V48l4.34,0Z" transform="translate(-0.07 -7.05)"/><path class="cls-1" d="M1097.83,8.34V48.71l-6.07,6.07h-4.54V49.32h3.5V41h-5.18v11.7l-7.16,2.92V8.34Zm-12.29,13.81h5.18V13.93h-5.18Zm0,13.36h5.18V27.59h-5.18Zm32.5,9.57,5.61,9.42h-7.18l-1.63-2.79-1.34,2.89h-7.44l4.82-9.72-4.29-7.39h6.91l.58.94,1.58-3.2h-9.32V52.72l-7.11,2.82V8.34h22.9V22.15L1115.5,28h-7.41V22.59H1115V13.65h-8.66V29.92h16.73v4.67Z" transform="translate(-0.07 -7.05)"/><path class="cls-1" d="M1143.71,23.58l-11-5.67h14.17l4.44,1.91L1161.59,15h-22.45l-1,1.88H1129l5.53-9.37H1143l-1.1,1.81h31.46V16L1159.1,23.4l17.06,7.67h-15.74L1151.76,27l-9.24,4.07h-14.88Zm5.71,11.67h25.24v13l-8.12,6.42h-15.36V49.09h15.49V41h-20.22l-7.13,13.66h-8.84L1137.62,41h-7.54V35.25h10.51l1.7-3.17h8.84Z" transform="translate(-0.07 -7.05)"/><path class="cls-1" d="M1208.74,40.89h20.16L1226.08,47h-17.37v3.68l-8.43,4.19V47h-18.86V40.89h18.86V14.26h-18.41V8.19h46.39l-2.82,6.07h-16.7Zm-19.15-23.81,7.32,20.16h-8.08l-7.16-20.16Zm29,0h8l-7.19,20.16h-8.07Z" transform="translate(-0.07 -7.05)"/><path class="cls-1" d="M1270.77,22.89l-1.83,3.94h-35.37v-6l9.19-13.76h10l-8,13.55,25.61.06-1.57-8.08H1277l2.56,14.25h-8.07Zm-37.2,6.88h45.25V47.52l-8.31,6.75-36.94,0Zm36.76,6.07h-28.25V48h28.28Z" transform="translate(-0.07 -7.05)"/></svg>