<svg id="图层_1" data-name="图层 1" xmlns="http://www.w3.org/2000/svg" viewBox="0 0 90 90"><defs><style>.cls-1{fill:#16823c;}.cls-2{fill:#fff;}.cls-3{fill:#276e37;}.cls-4{fill:#d8d32f;}.cls-5{fill:#bbb431;}</style></defs><title>90logo</title><path class="cls-1" d="M88.1,45A43.1,43.1,0,1,1,45,1.9,43.14,43.14,0,0,1,88.1,45Z"/><path class="cls-2" d="M87.14,44.88A42.14,42.14,0,1,1,45,2.74,42.12,42.12,0,0,1,87.14,44.88Z"/><path class="cls-1" d="M73.69,45.84A28.51,28.51,0,1,1,45.12,17.39,28.43,28.43,0,0,1,73.69,45.84Z"/><path class="cls-3" d="M9.83,43.08a6.07,6.07,0,0,0,4.32-3.84,2.62,2.62,0,0,0,.6.48,6.77,6.77,0,0,1-4.44,3.84,6.5,6.5,0,0,1,4,4.32,2.62,2.62,0,0,0-.6.36c-1-2.64-2.4-3.72-3.84-4.2l-.36,3.84H8.75L9,44a4.08,4.08,0,0,0-1.2-.12l-1.2-.12-.24,3.6H5.62l.49-7.92h.72l-.24,3.6,1.2.12c.36,0,.84.12,1.2.12l.24-4.08H10Z"/><path class="cls-3" d="M8.63,34.32c-.48.24-1.2.72-1.8,1.08l-.24-.48a11.26,11.26,0,0,1,1.68-1.2Zm4-2.41.84.37,1-2.53.48.24-1,2.53.84.36,1.08-3,.6.24-1.08,3,1.56.6-.24.36-1.56-.6-1,2.76-.6-.24,1-2.76-.84-.36-.84,2.28-.48-.24.84-2.28-.84-.12-.72,2-.48-.24.72-2-1-.37-1,2.65-.6-.24,1-2.65-.84-.24-.72,2-.48-.24L9,31.19l-1.08-.36.24-.6,1.08.36.84-2.28,1.44.48.24-.72.6.24-.24.72,1.44.48Zm-1.68,4c-.48.24-1.2.72-1.8,1.08l-.24-.48c.48-.36,1.32-.84,1.68-1.08Zm-.36-4.81.6-1.68L10.31,29l-.6,1.68Zm1.56.6.6-1.68-1-.36-.6,1.68Zm.24,4a25,25,0,0,1,2.52,2.52l-.6.36a24.92,24.92,0,0,0-2.52-2.64Z"/><path class="cls-3" d="M15.47,21.83l1.08.84L18.47,20l2.88,2.16q.54.36.36.72a5.85,5.85,0,0,1-1,1.44,1.71,1.71,0,0,0-.72-.24c.48-.6.84-1.08,1-1.2s.12-.24,0-.24l-2.28-1.8-1.56,2,4,3.12-.36.6-4-3.12-1.44,1.92,3,2.4-.48.6-3.6-2.76,1.92-2.4-1.08-.84-2.52,3.24-.48-.36,2.64-3.48a7,7,0,0,0-1.56-.24l.24-.6c.6.12,1.32.12,1.68.24v.24l2.52-3.24.48.36Z"/><path class="cls-3" d="M21.11,16.91a5.59,5.59,0,0,0-1.8-1.44l.36-.36a10.53,10.53,0,0,1,1.8,1.44Zm1.32-.48,1.2-.84.36.48-1.2.84.12.24c.48.12,1.8.48,2.16.6v.72c-.36-.12-1.08-.48-1.68-.72l2.4,3.48-.48.36-2.4-3.36a16.52,16.52,0,0,1,.48,3.12L22.67,21a10.27,10.27,0,0,0-.6-3.6l-1.2.84-.36-.48,1.32-1L19.91,14l.48-.36Zm0-.6c-.12-.6-.48-1.56-.72-2.28l.6-.24a21.64,21.64,0,0,1,.6,2.28Zm6.84-1c-.12.6-.36,1.2-.48,1.68a3.71,3.71,0,0,0,2.28.12.76.76,0,0,0,0,.72A5.85,5.85,0,0,1,26.63,16l-.84.6L27.47,19l1-1.32c.12.12.24.36.36.48a16.47,16.47,0,0,0-1.44,2.16h0c-.12-.12-.36-.12-.6-.24a1.15,1.15,0,0,0-.12-.84l-4-5.64,1.44-1.08a4.21,4.21,0,0,0-1-.6l.36-.48a8.42,8.42,0,0,1,1.08.72l1.44-1,2.4,3.48-1.56,1.08a3.2,3.2,0,0,0,1.2.72,7.76,7.76,0,0,0,.48-1.56Zm-5.64-1.32.72,1,2.4-1.68-.72-1Zm1.68,2.52,2.4-1.68L27,13.31,24.59,15Z"/><path class="cls-3" d="M34,7a.42.42,0,0,1-.12.24,9.14,9.14,0,0,0,4.8,1.08A1.29,1.29,0,0,0,38.4,9a6.84,6.84,0,0,1-1.56-.12l1,3.12c.12-.12.12-.24.24-.36l.6.24a9.06,9.06,0,0,1-1.32,1.68c.84.24,1.56.36,2.16.6l-.36.6a26.76,26.76,0,0,0-4.44-1.08l.36-.48c.48.12,1.08.12,1.68.24A15,15,0,0,0,37.8,12l-4.68,1.44.6,2,2.16-1.2c0,.12.12.48.12.6a23.87,23.87,0,0,0-2.76,1.68c-.12-.12-.24-.36-.48-.48a.67.67,0,0,0,.12-.72l-1.45-4.8a7.76,7.76,0,0,1-1.08,1,1,1,0,0,0-.6-.36,8.69,8.69,0,0,0,3.37-4.44Zm2.4,1.92A9.46,9.46,0,0,1,33.6,7.79,10.29,10.29,0,0,1,32,10.19L34,9.59l-.72-.72.48-.36a6.86,6.86,0,0,1,1,.84Zm-4.08,1.92.24.84,4.08-1.32-.24-.84Zm4.8,1-.36-.84-4.08,1.2.24,1Z"/><path class="cls-3" d="M43.56,8.15h1.8v.6h-1.8V9a25.14,25.14,0,0,1,1.68,2l-.36.6c-.24-.36-.84-1.2-1.32-1.8v4.56h-.72V9.71a9.86,9.86,0,0,1-1.92,3.12,2.62,2.62,0,0,0-.36-.6,12.86,12.86,0,0,0,2-3.6H40.8V8h2V6.23c-.6.12-1.2.12-1.68.24a5.2,5.2,0,0,1-.12-.6A17.05,17.05,0,0,0,44.88,5l.48.48c-.48.12-1.08.37-1.68.49Zm5.76-2V14H48.6v-.72H46.32v.84h-.6V6.23Zm-.72,6.36V6.71H46.32v5.76Z"/><path class="cls-3" d="M55.08,11.75H53.76l-1.2,3.6-.6-.24L53,11.75h-1.8V11h1.92l.72-2.28L53,8.51a12.57,12.57,0,0,1-1,1.32c-.12-.12-.24-.36-.36-.48a14.05,14.05,0,0,0,1.68-3l.48.24a6.43,6.43,0,0,0-.6,1.32l.84.24.6-2,.6.24-.6,2,1.08.36-.24.6L54.48,9l-.6,2.16H55.2Zm6.13-1.68a1.21,1.21,0,0,0-.12.36c-1.68,4.32-2.4,5.76-2.88,6.12a.58.58,0,0,1-.73.12,11.33,11.33,0,0,0-1.08-.36c0-.24.12-.48,0-.72a3.25,3.25,0,0,0,1,.36h.48c.37-.24,1.09-1.68,2.65-5.52L60,10.31c-1.32,2.4-3.25,4.68-5.29,5.4a2.62,2.62,0,0,1-.36-.6c1.92-.6,3.85-2.76,5-5l-.84-.24a9.57,9.57,0,0,1-3.85,3.72,2.62,2.62,0,0,1-.36-.6A8.68,8.68,0,0,0,58,9.59l-.84-.24a10,10,0,0,1-1.68,1.56c-.12-.12-.24-.36-.36-.48a12.6,12.6,0,0,0,2.76-3.24l.61.36a10.11,10.11,0,0,1-1,1.44Z"/><path class="cls-3" d="M65.41,17.39c-1.44,1.44-2.88,1.92-5.88.36.12-.12.12-.48.12-.6,2.88,1.56,4,1.2,5.28-.12Zm.72,2.76,1.2-1.8-4.08-2.88-1.32,1.8-.48-.36,1.68-2.28,5.16,3.72-1.68,2.16Zm-.84-5.88c-1-.24-2-.6-2.88-.84l.24-.6,2.88,1Zm-.72,4.44a19.32,19.32,0,0,1,2.16,3.36l-.6.24c-.48-.84-1.44-2.4-2.16-3.48Zm1-5.76a7.25,7.25,0,0,0-1.08-2.16l.6-.24a6.77,6.77,0,0,1,1.08,2Zm3.36,1.8c-.12.12-.36.24-.48.36a5.1,5.1,0,0,0,1.32,3.24.92.92,0,0,0-.6.24,5.34,5.34,0,0,1-1.2-3.12,4.28,4.28,0,0,1-3.24,0v-.6a3.48,3.48,0,0,0,3.72-.48l-1.08-.72a6,6,0,0,1-1.56.36c0-.12-.12-.48-.12-.6a5.72,5.72,0,0,0,2.64-.84l.48.48a5.22,5.22,0,0,1-.84.48l2.88,2h.12l.36.36c-.48.24-1.08.6-1.56.84l-.36-.48a7.08,7.08,0,0,0,1-.48Z"/><path class="cls-3" d="M75.61,19.19l-2.16.72-5.52,4.32-.36-.48,4.56-3.6a6.84,6.84,0,0,1-1.56.12,1.29,1.29,0,0,0,.24-.72,13.9,13.9,0,0,0,4.56-1.08Zm-4.08,6.12c-.12.12-.24.36-.36.48a5.58,5.58,0,0,0-2-.6,1.27,1.27,0,0,0,.24-.6.9.9,0,0,0,.84-.24l2.88-2.28-.6-.84.48-.36,1,1.32L70.33,25Zm4.08-.12c-.48,0-1.08-.12-1.56-.12l1.68,2.16-3.48,2.64-.36-.48.36-.36-1.44-1.8-.48.36L70,27.11l3-2.28a2.82,2.82,0,0,0-1-.24c0-.12.12-.48.12-.72a10.38,10.38,0,0,0,2.76.72L73.69,23l.48-.36,1,1.32,1.08-.84-.84-1.08.48-.36.84,1.08,1-.72.36.48-1,.72.72,1-.48.36c.48-.12,1-.12,1.44-.24L79,25a12.82,12.82,0,0,1-3,.36l1,1.2-.48.36Zm-2.76,3.48.84-.72-1.44-1.8-.84.72ZM75,27l-1.44-1.8-.84.72,1.44,1.8Zm-.36-5.4a6.5,6.5,0,0,0,.48-1.8l.6.12a6.5,6.5,0,0,1-.48,1.8Zm1.2,2.76.12.24a7.92,7.92,0,0,0,1.68-.12l-.72-1Z"/><path class="cls-3" d="M77.29,30.23l2.28,6L75.49,37.8l-.24-.6.24-.12-1.8-4.8-.36.12-.24-.61Zm-2.16,4,1.2-.48-.84-2-1.2.49Zm1,2.64,1.2-.48-.84-2-1.2.48Zm1-5.77L76,31.43l.84,2,1.08-.36Zm6,3.61a6.8,6.8,0,0,1-2.76-1.44,16.43,16.43,0,0,0,.48,4.08,1.52,1.52,0,0,0-.72-.12,14.19,14.19,0,0,1-.36-4.44,16.81,16.81,0,0,1-2.88-3.61l.48-.48a13.1,13.1,0,0,0,2.52,3.24,7.93,7.93,0,0,1,.6-1.8A9.24,9.24,0,0,1,78.85,29a.92.92,0,0,0,.24-.6,6.93,6.93,0,0,0,3.48,1.8l.12.72a2.22,2.22,0,0,1-.84-.24l1.32,3.37.12.12Zm-4.2,1.08-.84-2-1.08.36.84,2Zm2-5.29a5.75,5.75,0,0,0-.6,2.05,5.42,5.42,0,0,0,2,1.32L81,30.47Z"/><path class="cls-3" d="M82,47.64h-.36c-3.12.12-4.2.12-4.56-.24a.73.73,0,0,1-.36-.72c0-.24-.12-.84-.12-1.32a1.27,1.27,0,0,0,.6-.24v1.32c0,.24,0,.24.12.36s1.32.24,4,.12l-.48-6.24a9.74,9.74,0,0,1-4.56-1,1,1,0,0,0,.36-.6,10.93,10.93,0,0,0,5.76.84l2.41-.24.48,6.72-2.41.48-.48-6.12h-1Zm-4.44-5h-.6V42l3.24-.24.24,3.72-2.64.24Zm2-.12-1.44.12.24,2.52L79.81,45Zm4.81-1.92-1.33.12.36,5.4L84.74,46Z"/><path class="cls-3" d="M11,51.84l-.24-1.2.6-.12.6,3-.6.12-.24-1.2-3.6.84-.12-.6Z"/><path class="cls-3" d="M11,54.24l.12.6L8,55.68l-.12-.6Zm1-.36c.24-.12.48,0,.48.24s0,.48-.24.48a.35.35,0,0,1-.48-.24C11.63,54.12,11.75,53.88,12,53.88Z"/><path class="cls-3" d="M9.23,56.28c.6-.24,1.2.24,1.68,1.32a.63.63,0,0,0,.48-.84,1.23,1.23,0,0,0-.6-.72l.36-.36A2.61,2.61,0,0,1,12,56.76c.24.72-.12,1.2-1,1.57l-1.8.6-.12-.48.36-.12h0a2.05,2.05,0,0,1-.72-.73C8.39,56.88,8.63,56.4,9.23,56.28ZM9.71,58l.72-.24c-.36-.84-.72-1.08-1.08-1a.44.44,0,0,0-.24.6A1.45,1.45,0,0,0,9.71,58Z"/><path class="cls-3" d="M12.47,58.45l.24.48-.36.24h0a1.27,1.27,0,0,1,.84.72c.24.6,0,1.08-.84,1.44l-1.8.84-.24-.6,1.8-.84c.48-.24.6-.48.48-.84a1.1,1.1,0,0,0-.72-.48l-2,1-.24-.6Z"/><path class="cls-3" d="M9.47,62.89l.48-.12c0,.12,0,.24.12.24q.18.36.72,0l3.12-1.56.24.6L11,63.61c-.6.36-1.08.36-1.44-.24C9.59,63.25,9.47,63,9.47,62.89ZM14.75,61a.43.43,0,0,1,.48.72.44.44,0,0,1-.6-.24C14.51,61.21,14.51,61.09,14.75,61Z"/><path class="cls-3" d="M14.63,62.77l.36.6-2.88,1.56-.36-.6Zm.72-.6a.53.53,0,0,1,.6.12c.12.24.12.48-.12.6a.43.43,0,0,1-.48-.72Z"/><path class="cls-3" d="M15.23,64.09l.24.48-.36.24h0a1.65,1.65,0,0,1,1,.6c.36.6.12,1.08-.6,1.44l-1.68,1.08-.36-.48,1.68-1.08c.48-.36.6-.6.36-.84s-.36-.36-.84-.36l-1.92,1.2-.36-.48Z"/><path class="cls-3" d="M18.71,67l1.56,1.92-.48.36-1.2-1.32-1,.84,1,1.2-.48.36-1-1.2-1.44,1.2-.36-.48Z"/><path class="cls-3" d="M18.35,70.81a1.57,1.57,0,0,1,2.28-.12A1.59,1.59,0,0,1,20.39,73a1.43,1.43,0,0,1-2.16.12A1.68,1.68,0,0,1,18.35,70.81ZM20,72.49c.48-.48.6-1,.24-1.32s-.84-.24-1.32.24-.6,1-.24,1.32A1,1,0,0,0,20,72.49Z"/><path class="cls-3" d="M20.87,73.21A1.48,1.48,0,0,1,23,72.85a1.55,1.55,0,0,1,0,2.28,1.48,1.48,0,0,1-2.16.36A1.55,1.55,0,0,1,20.87,73.21Zm1.68,1.44c.48-.48.48-1.08.12-1.32s-.84-.12-1.32.36-.48,1.08-.12,1.32S22.07,75.25,22.55,74.65Z"/><path class="cls-3" d="M23.39,75.37c.6-.84,1.44-1.08,2-.6a2.51,2.51,0,0,1,.48.72l.24-.48.72-1,.48.36-2.64,3.84L24.23,78l.12-.36h0a1.28,1.28,0,0,1-1-.12C22.91,77.05,22.79,76.33,23.39,75.37Zm1.44,1.8.84-1.32a1.28,1.28,0,0,0-.36-.6c-.36-.24-.84-.12-1.32.48s-.36,1.08,0,1.32A.71.71,0,0,0,24.83,77.17Z"/><path class="cls-3" d="M30,81l-.12-1.92-.6-.24-.72,1.56-.6-.24,1.8-3.84,1.2.6c.72.36,1.21,1,.84,1.8-.24.48-.72.6-1.32.6l.12,2Zm-.48-2.64.6.24c.6.24,1,.12,1.2-.36s0-.72-.48-1.08l-.72-.24Z"/><path class="cls-3" d="M31.55,80.05A1.55,1.55,0,0,1,33.48,79c.72.24,1,1,.6,1.8,0,.12-.12.24-.12.36L32,80.41c-.13.6,0,1.08.6,1.2a.76.76,0,0,0,.72,0l.12.48a1.67,1.67,0,0,1-1.08,0A1.5,1.5,0,0,1,31.55,80.05Zm2.17.36c.24-.48.12-1-.36-1.08a.86.86,0,0,0-1.08.6Z"/><path class="cls-3" d="M34.08,82.21l.36-.36a3.18,3.18,0,0,0,.72.6c.36.12.6,0,.6-.24s-.24-.48-.48-.72a1,1,0,0,1-.6-1.08.94.94,0,0,1,1.32-.6,1.53,1.53,0,0,1,.84.6l-.36.36a1.2,1.2,0,0,0-.6-.48c-.36-.12-.48,0-.6.24s.24.48.48.72a1.12,1.12,0,0,1,.6,1.2c-.12.48-.6.84-1.44.6A5.54,5.54,0,0,1,34.08,82.21Z"/><path class="cls-3" d="M37.08,81.73c.24-1.08,1-1.56,1.68-1.44s1.08.84,1,1.68a.44.44,0,0,1-.12.36L37.68,82a1,1,0,0,0,.72,1.2,1.52,1.52,0,0,0,.72-.12l.12.48a1.69,1.69,0,0,1-1.08.12A1.47,1.47,0,0,1,37.08,81.73Zm2.16.12c.12-.6-.12-1-.48-1s-.72.12-1,.72Z"/><path class="cls-3" d="M40.56,80.65H41v.6h0a1.22,1.22,0,0,1,1-.6.44.44,0,0,1,.36.12l-.12.6c-.12,0-.12-.12-.24-.12a1,1,0,0,0-.84.6l-.24,2-.6-.12Z"/><path class="cls-3" d="M42.24,80.89h.6l.48,1.8c.12.36.12.6.24,1h0a2.82,2.82,0,0,0,.24-1L44.4,81H45l-1,3.12h-.72Z"/><path class="cls-3" d="M45.48,82.57a1.65,1.65,0,0,1,1.32-1.8,1.29,1.29,0,0,1,1.32,1.44v.36l-2,.12c.12.6.48,1,1,1a1.71,1.71,0,0,0,.72-.24l.24.36a1.47,1.47,0,0,1-1.08.36C46.2,84.26,45.48,83.65,45.48,82.57Zm2-.36c0-.6-.24-.84-.72-.84s-.72.36-.72,1Z"/><path class="cls-3" d="M49.68,81.73c-.24-1.44.36-2.4,1.44-2.52a1.34,1.34,0,0,1,1.2.36l-.24.48a1,1,0,0,0-.84-.24c-.72.12-1.08.84-.84,1.8s.72,1.56,1.44,1.44a1.39,1.39,0,0,0,.84-.6l.36.36a1.52,1.52,0,0,1-1.2.84A2.07,2.07,0,0,1,49.68,81.73Z"/><path class="cls-3" d="M53.28,81.49a1.51,1.51,0,0,1,1-2,1.63,1.63,0,0,1,1.92,1.2,1.6,1.6,0,0,1-1,2A1.46,1.46,0,0,1,53.28,81.49Zm2.16-.6c-.24-.6-.6-1-1.08-.84s-.6.6-.48,1.32.6,1,1.08.84S55.56,81.61,55.44,80.89Z"/><path class="cls-3" d="M56.16,79.09l.48-.24.24.36h0a1.27,1.27,0,0,1,.72-.84.66.66,0,0,1,1,.24,1.24,1.24,0,0,1,.72-1c.6-.24,1.08,0,1.32.84l.84,1.8-.72.24L60,78.73c-.24-.48-.48-.6-.72-.48a1.1,1.1,0,0,0-.48.72l1,2-.6.24-.72-1.8c-.24-.48-.49-.6-.73-.48a1.1,1.1,0,0,0-.48.72l1,2L57.6,82Z"/><path class="cls-3" d="M60.73,76.93l.48-.24.24.24h0a1.53,1.53,0,0,1,.6-.84c.72-.36,1.32,0,1.92.84s.36,1.8-.24,2.16a1.78,1.78,0,0,1-.84.12l.24.48.48,1L63,81Zm2.64.36c-.36-.6-.72-.84-1.2-.6a1.1,1.1,0,0,0-.48.72l.84,1.32a.67.67,0,0,0,.72-.12C63.61,78.37,63.73,77.89,63.37,77.29Z"/><path class="cls-3" d="M64.69,77.29c-.36-.6-.12-1.2.84-2-.24-.36-.48-.48-.84-.24a1.21,1.21,0,0,0-.48.84l-.48-.24a2.83,2.83,0,0,1,.72-1.08c.6-.48,1.2-.24,1.68.48l1.08,1.56-.36.36-.24-.24h0a1.65,1.65,0,0,1-.6,1A1,1,0,0,1,64.69,77.29Zm1.56-1-.48-.6c-.72.6-.84,1-.6,1.32s.48.24.6.12A2.06,2.06,0,0,0,66.25,76.33Z"/><path class="cls-3" d="M66,73.45l.36-.36.36.36h0a1.3,1.3,0,0,1,.48-1.08c.48-.48,1-.24,1.56.36l1.32,1.56-.6.48-1.2-1.44c-.36-.48-.6-.48-1-.24s-.24.36-.24.72l1.44,1.8-.48.36Z"/><path class="cls-3" d="M71.89,72.73c.36.6.48,1.2,0,1.68-.12.12-.24.24-.36.24l-.24-.48a.42.42,0,0,1,.24-.12.58.58,0,0,0,0-.84L71.41,73l-3.12-1.44.48-.48,1.56.72a3,3,0,0,1,.84.48h0l-.48-.84-.84-1.56.48-.48Z"/><path class="cls-3" d="M70.33,67.69l.36-.48,2.88,2.28,1.08-1.32.48.36-1.44,1.92Z"/><path class="cls-3" d="M72.13,65.53c-.24-.12-.24-.36-.12-.6s.36-.24.6-.12.24.36.12.6S72.25,65.77,72.13,65.53Zm.84.6.36-.48L76,67.45l-.36.48Z"/><path class="cls-3" d="M73.81,64.93l.24-.48.36.24h0a1.67,1.67,0,0,1,0-1.08,1.09,1.09,0,0,1,1-.48c-.12-.48-.24-.84,0-1.2.36-.6.84-.6,1.56-.24l1.8,1-.36.6-1.68-1c-.48-.24-.72-.24-1,0a1,1,0,0,0,0,.84l1.92,1.2-.12.6-1.68-1c-.48-.24-.72-.24-1,0a1,1,0,0,0,0,.84L76.81,66l-.36.6Z"/><path class="cls-3" d="M75.37,60.13a.48.48,0,0,1-.24-.48c.12-.24.36-.36.48-.24s.24.36.24.6S75.61,60.25,75.37,60.13Zm1,.36.24-.6,2.88,1.32-.24.6Z"/><path class="cls-3" d="M79,59.89l-1.56-.6-.12.36-.48-.24.12-.48-.84-.36.24-.49.84.37.36-.73L78,58l-.36.73,1.56.6c.36.12.6.12.72-.24v-.36l.48.12a1.08,1.08,0,0,1-.12.6C80.05,60.13,79.57,60.13,79,59.89Z"/><path class="cls-3" d="M79.09,58.09a1.64,1.64,0,0,1-1.2-1.93c.24-.72,1-1,1.8-.72.12,0,.24.12.36.12l-.6,1.92a.93.93,0,0,0,1.2-.6.77.77,0,0,0,0-.72l.48-.12a1.66,1.66,0,0,1,0,1.08A1.48,1.48,0,0,1,79.09,58.09Zm.36-2.17c-.48-.12-1,0-1.08.36a1,1,0,0,0,.6,1.08Z"/><path class="cls-3" d="M80.05,55.08a1.6,1.6,0,0,1-1.32-1.68,1.17,1.17,0,0,1,.6-.72l-.48-.12-1.2-.24.12-.6,4.56,1.08-.12.48h-.36a1.29,1.29,0,0,1,.24,1C81.85,55,81.13,55.32,80.05,55.08Zm1.2-1.92-1.56-.36a1.2,1.2,0,0,0-.48.6c-.12.36.24.84,1,1.08s1.2,0,1.32-.48C81.61,53.76,81.49,53.52,81.25,53.16Z"/><path class="cls-4" d="M53.76,34.32a5.26,5.26,0,0,0-.6-1.08h0a5.51,5.51,0,0,0,1.2.12,2.16,2.16,0,0,1,1.2.24c.72.48.48,1.32,1.08,1.92-.72-.36-1.44.36-2.16-.12A2.83,2.83,0,0,1,53.76,34.32Z"/><path class="cls-4" d="M55.32,34.92a1.3,1.3,0,0,1,1,.24,1.4,1.4,0,0,0-1.08,0,.72.72,0,0,1-.84-.48S54.48,35,55.32,34.92Z"/><path class="cls-4" d="M58.93,34.68a5.26,5.26,0,0,0-.6-1.08h0a5.51,5.51,0,0,0,1.2.12,2.16,2.16,0,0,1,1.2.24c.72.48.48,1.32,1.08,1.92-.72-.36-1.44.36-2.16-.12A2.83,2.83,0,0,1,58.93,34.68Z"/><path class="cls-4" d="M60.49,35.4a1.3,1.3,0,0,1,1,.24,1.4,1.4,0,0,0-1.08,0,.72.72,0,0,1-.84-.48C59.41,35,59.65,35.52,60.49,35.4Z"/><path class="cls-4" d="M58.93,37.56a5.26,5.26,0,0,0-.6-1.08h0a5.51,5.51,0,0,0,1.2.12,2.16,2.16,0,0,1,1.2.24c.72.48.48,1.32,1.08,1.92-.72-.36-1.44.36-2.16-.12A2.83,2.83,0,0,1,58.93,37.56Z"/><path class="cls-4" d="M60.49,38.16a1.3,1.3,0,0,1,1,.24,1.4,1.4,0,0,0-1.08,0,.72.72,0,0,1-.84-.48S59.65,38.4,60.49,38.16Z"/><path class="cls-4" d="M63.13,36a5.26,5.26,0,0,0-.6-1.08h0a5.51,5.51,0,0,0,1.2.12,2.16,2.16,0,0,1,1.2.24c.72.48.48,1.32,1.08,1.92-.72-.36-1.44.36-2.16-.12A2.83,2.83,0,0,1,63.13,36Z"/><path class="cls-4" d="M64.69,36.72a1.3,1.3,0,0,1,1,.24,1.4,1.4,0,0,0-1.08,0,.72.72,0,0,1-.84-.48C63.61,36.36,63.85,36.84,64.69,36.72Z"/><path class="cls-4" d="M63,40.44s-.24-.72-.48-.84h0a3.38,3.38,0,0,0,1,.12,1.29,1.29,0,0,1,1,.24c.6.36.36,1.08,1,1.56-.6-.24-1.2.24-1.8-.12A11.07,11.07,0,0,1,63,40.44Z"/><path class="cls-4" d="M64.33,40.92a1.52,1.52,0,0,1,.72.24,2.23,2.23,0,0,0-1,0c-.24,0-.6-.24-.6-.48C63.49,40.68,63.61,41,64.33,40.92Z"/><path class="cls-4" d="M62.77,38.16l-.36-.72h0a2.49,2.49,0,0,0,1,0,2.64,2.64,0,0,1,1,.12c.6.24.36.84.72,1.2-.6-.12-1.08.24-1.68,0A1,1,0,0,1,62.77,38.16Z"/><path class="cls-4" d="M64,38.52a.92.92,0,0,1,.72.12,1.63,1.63,0,0,0-.84,0,.44.44,0,0,1-.6-.24S63.25,38.64,64,38.52Z"/><path class="cls-4" d="M66.13,38.64l-.36-.72h0a2.49,2.49,0,0,0,1,0,2.64,2.64,0,0,1,1,.12c.6.24.36.84.72,1.2-.6-.12-1.08.24-1.68,0A1,1,0,0,1,66.13,38.64Z"/><path class="cls-4" d="M67.33,39a.92.92,0,0,1,.72.12,1.63,1.63,0,0,0-.84,0,.44.44,0,0,1-.6-.24S66.61,39.12,67.33,39Z"/><path class="cls-4" d="M67.09,41.28a1.86,1.86,0,0,0-.36-.72h0a3,3,0,0,0,1,.12,1.78,1.78,0,0,1,.84.12c.6.36.24.84.6,1.32-.6-.24-1.2.12-1.68-.12A1,1,0,0,1,67.09,41.28Z"/><path class="cls-4" d="M68.17,41.76a1.52,1.52,0,0,1,.72.24,1.63,1.63,0,0,0-.84,0,.48.48,0,0,1-.6-.36S67.45,41.88,68.17,41.76Z"/><path class="cls-4" d="M38.4,49.68s-7.21,1.2-9.73-3.6c0,0-4.32-5.64.72-10.44a7.06,7.06,0,0,0-4.8,6.48c-.12,2.76,2.16,6.72,8.77,7.8A12.66,12.66,0,0,0,38.4,49.68Z"/><path class="cls-4" d="M63.25,41.64S46.44,26.87,31.07,38.88c-.36.24-6,4.68.12,10.68,0,0-13.44-3.72-5.16-14.28,8.65-11.17,27.73-10.93,40.1-.24a30.29,30.29,0,0,0-17.41-5.65s9.85,1.68,13.69,4.69c0,0-14.53-6.37-23.89-1.44C38.52,32.52,50.64,30.47,63.25,41.64Z"/><path class="cls-5" d="M48.36,55.92H42.48a15.34,15.34,0,0,0-1.32,4.45c0,1.68-.36,4.56,2.28,4.08C46.32,64,47.16,59.05,48.36,55.92Z"/><path class="cls-4" d="M43.32,64.45s-7.8,1.56-6.6-6.36c0,0,.24-2.77,2.88-10.45a111.54,111.54,0,0,0,3.48-11.52,8.77,8.77,0,0,1,2.52,1.56A15.22,15.22,0,0,1,48,39.6c.24.36-2.88,7.56-5,16.56a34.72,34.72,0,0,0-1.08,5.41A3,3,0,0,0,43.32,64.45Z"/></svg>