<svg id="图层_1" data-name="图层 1" xmlns="http://www.w3.org/2000/svg" viewBox="0 0 310 442"><defs><style>.cls-1{fill:#e0b41b;}.cls-2{fill:#1be0b9;}.cls-3{fill:#8a00ff;}.cls-4{fill:#93d5ff;}.cls-5{fill:#2f98ff;}.cls-6{fill:#5c7bff;}.cls-7{fill:#c4c4c4;}.cls-8{fill:#fff;}</style></defs><title>未标题-3</title><path class="cls-1" d="M252.4,66.87c28.71-15.14,52.72-18.57,53.09-18.62a3.5,3.5,0,0,0-.93-6.94c-1.14.15-26.58,3.73-57.22,20.31C248.77,63.25,250.45,65,252.4,66.87Z"/><path class="cls-2" d="M195.24,113.54a181,181,0,0,1,48.78-42c2.82-1.68,5.62-3.23,8.38-4.68-1-.9-4.33-4.42-5.06-5.25-2.19,1.19-4.4,2.43-6.64,3.76a188.05,188.05,0,0,0-60.82,57.41c1.84.93,4,1.92,6.39,2.88Q190.52,119.4,195.24,113.54Z"/><path class="cls-3" d="M158.19,257.25a189.92,189.92,0,0,1-2.88-36.64c-2.58,0-4.95-.05-7-.2a197.58,197.58,0,0,0,3,37.79,177.06,177.06,0,0,0,14.49,45.5c1.87-.89,4-2,6.19-3.3A170.19,170.19,0,0,1,158.19,257.25Z"/><path class="cls-4" d="M304.76,403.08c-23.2-5-45.33-17.19-54.41-22.63-1.18,2.24-2.37,4.26-3.53,6.07,9.49,5.72,32.09,18.19,56.47,23.4a3.11,3.11,0,0,0,.74.08,3.5,3.5,0,0,0,.73-6.92Z"/><path class="cls-5" d="M246,377.75l-.19-.12c-26.91-15.5-48.21-35.12-63.31-58.31a162.09,162.09,0,0,1-10.58-18.92c-2.23,1.31-4.32,2.41-6.19,3.3A169.43,169.43,0,0,0,176.54,323c15.7,24.16,37.8,44.57,65.69,60.65.46.31,2.07,1.36,4.59,2.88,1.16-1.81,2.35-3.83,3.53-6.07C247.64,378.82,246.07,377.8,246,377.75Z"/><path class="cls-6" d="M155.31,220.61c.34-19.87,3.6-33,3.65-33.24a198,198,0,0,1,27.31-61.7c-2.41-1-4.55-2-6.39-2.88a203.35,203.35,0,0,0-27.7,62.85c-.22.85-3.57,14.35-3.91,34.77C150.36,220.56,152.73,220.65,155.31,220.61Z"/><path class="cls-7" d="M239.41,400.38H197.32a1,1,0,0,1,0-2h40.91l6.71-12.14a1,1,0,0,1,1.36-.39,1,1,0,0,1,.39,1.36Zm-73.18-95.81a1,1,0,0,0-1-1.75l-20,11.18h-29a1,1,0,0,0,0,2h29.51ZM148,221a1,1,0,0,0-1-1H79a1,1,0,0,0,0,2H147A1,1,0,0,0,148,221Zm31.85-98.21H114.73m66.15,0a1,1,0,0,0-1-1H114.73a1,1,0,0,0,0,2h65.15A1,1,0,0,0,180.88,122.79ZM248,62.37a1,1,0,0,0,.08-1.41L229.68,40.28h-33a1,1,0,0,0,0,2h32.05l17.81,20a1,1,0,0,0,1.42.08Z"/><path class="cls-8" d="M254.06,63.48a4.13,4.13,0,1,1-4.13-4.13A4.13,4.13,0,0,1,254.06,63.48Zm-71.25,55.87a4.13,4.13,0,1,0,4.13,4.13A4.13,4.13,0,0,0,182.81,119.35ZM168.09,297.8a4.13,4.13,0,1,0,4.13,4.13A4.13,4.13,0,0,0,168.09,297.8Zm-16.93-80.93a4.13,4.13,0,1,0,4.13,4.13A4.13,4.13,0,0,0,151.16,216.87Zm97.31,163.05a4.13,4.13,0,1,0,4.13,4.13A4.13,4.13,0,0,0,248.47,379.92Z"/><path class="cls-8" d="M75.23,82.07a39.5,39.5,0,1,0,39.5,39.5A39.5,39.5,0,0,0,75.23,82.07Zm0,76.75a37.25,37.25,0,1,1,37.25-37.25A37.25,37.25,0,0,1,75.23,158.82Z"/><circle class="cls-2" cx="75.23" cy="121.57" r="37.25"/><path class="cls-8" d="M62.31,144.3v1H50.06v-1H54V133.44h1V144.3h2.37V133.46h1V144.3Zm-10.05-2.63a36.88,36.88,0,0,0-1.9-4.92l1-.29a41.61,41.61,0,0,1,2,4.82ZM62,137a39.36,39.36,0,0,1-2.41,4.82l-.86-.46a29.91,29.91,0,0,0,2.33-4.82Z"/><path class="cls-8" d="M74.07,135.08a9.21,9.21,0,0,1-3.69,3,22,22,0,0,0,5.06.81,4.1,4.1,0,0,0-.58.94,19.38,19.38,0,0,1-5.71-1.23,26.09,26.09,0,0,1-6,1.4,3.13,3.13,0,0,0-.42-.91A25.49,25.49,0,0,0,68,138a8,8,0,0,1-2.09-1.65A13.65,13.65,0,0,1,64,137.68a3.21,3.21,0,0,0-.64-.78,10,10,0,0,0,4.06-3.65l1.09.22a13.66,13.66,0,0,1-.89,1.24h5.64l.19-.06Zm.11,6a3.15,3.15,0,0,1-.06.46c-.29,2.53-.61,3.59-1.09,4a1.63,1.63,0,0,1-1.14.38c-.4,0-1.24,0-2.07,0a2,2,0,0,0-.32-.93c.88.08,1.76.1,2.11.1a1,1,0,0,0,.61-.13c.32-.26.6-1.12.84-3H68.81c-.88,2.25-2.6,3.43-5.35,4.09a4.41,4.41,0,0,0-.57-.88c2.46-.48,4-1.42,4.82-3.21H63.85V141H68a9,9,0,0,0,.26-1.39l1.08.08c-.07.47-.17.91-.26,1.31Zm-7.59-5.24a6.4,6.4,0,0,0,2.57,1.83,9.69,9.69,0,0,0,3.29-2H66.8Z"/><path class="cls-8" d="M77.6,135.2a7.36,7.36,0,0,1-1.13,1.68,8.07,8.07,0,0,0-.88-.48,7.62,7.62,0,0,0,1.7-3.17l1,.17a9.28,9.28,0,0,1-.35,1h3.74v.79H79.56a6.64,6.64,0,0,1,.62,1.21l-.88.33a9.11,9.11,0,0,0-.73-1.54Zm4.43.91a8.42,8.42,0,0,1,.56,1.07h5.1v2.29h-1V138H77.39v1.46h-1v-2.29h5.14a7.1,7.1,0,0,0-.42-.88ZM79,142.62h7.76V146h-1v-.45H79v.48h-1v-7.2H86v2.78H79Zm0-3v1.19h6v-1.19Zm0,3.77v1.35H85.7v-1.35Zm9.08-9v.77h-2.5a7.23,7.23,0,0,1,.78,1.19l-.85.39a7.34,7.34,0,0,0-1-1.58h-1a5.89,5.89,0,0,1-.83,1.2,4.62,4.62,0,0,0-.85-.49,6.06,6.06,0,0,0,1.36-2.66l1,.17c-.1.35-.21.67-.34,1Z"/><path class="cls-8" d="M92.93,143.17c-1.49.5-3.09,1.05-4.34,1.45l-.24-1.05c.52-.15,1.17-.35,1.88-.59v-3.76h-1.6v-1h1.6v-3H88.49v-1h4.35v1H91.23v3h1.41v1H91.23v3.46l1.52-.51Zm8.37,1.48v.95h-9v-.95h4.25v-1.92H93.35v-.95h3.18v-1.64h-3v-6.23h7.12v6.23H97.58v1.64h3.27v.95H97.58v1.92Zm-6.83-8.07H96.6v-1.76H94.47Zm0,2.65H96.6v-1.79H94.47Zm5.17-4.41H97.5v1.76h2.14Zm0,2.62H97.5v1.79h2.14Z"/><path class="cls-8" d="M68.81,99H86.75c.63.49.46,1.33.48,2,0,5,0,10,0,15-6.18.06-12.35,0-18.53,0,0-5.13,0-10.27,0-15.4A11,11,0,0,1,68.81,99ZM73,104a1.21,1.21,0,0,0,.21,2.28c3.07.07,6.14,0,9.21,0a1.19,1.19,0,0,0,.93-1.83c-.51-.8-1.58-.51-2.37-.57-2.66.08-5.34-.13-8,.1Zm0,5.5a1.21,1.21,0,0,0,.21,2.29c3.16,0,6.32.07,9.47,0a1.21,1.21,0,0,0-.24-2.34c-3.14,0-6.31-.12-9.44.07Zm-9.8-6.73c0-.47,0-1.06.53-1.25,1-.1,2.05,0,3.08,0q0,7.33,0,14.65H63.23c0-4.46,0-8.92,0-13.37Zm-2.37,15.79c.25-.2.47-.54.84-.49,2.89,0,5.79,0,8.68,0,.71-.09,1.08.58,1.53,1a4.69,4.69,0,0,0,5.52.86c1.15-.43,1.6-2.07,3-1.88,2.79,0,5.58,0,8.38,0,.36,0,.6.27.84.49v8.75c-.33,0-.51.12-.55.49H61.33c.05-.37-.11-.54-.49-.51Zm0,0"/><path class="cls-8" d="M41,181.5A39.5,39.5,0,1,0,80.48,221,39.49,39.49,0,0,0,41,181.5Zm0,76.75A37.25,37.25,0,1,1,78.23,221,37.26,37.26,0,0,1,41,258.25Z"/><circle class="cls-6" cx="40.98" cy="221" r="37.25"/><path class="cls-8" d="M20.39,239.65l-1.85.58v4c0,.59-.14.87-.5,1a4.67,4.67,0,0,1-1.85.18,3.44,3.44,0,0,0-.32-.95h1.38c.2,0,.27-.06.27-.27v-3.72l-1.82.54-.29-1,2.11-.57v-3H15.57v-1h1.95v-2.81h1v2.81h1.64v1H18.54v2.7c.56-.15,1.15-.32,1.73-.5Zm5.93-2.39c.77,0,.89-.24,1-1.75a3.05,3.05,0,0,0,.95.4c-.15,1.82-.48,2.3-1.86,2.3H23.12c-1.59,0-2-.31-2-1.51v-3.95h1v2.08a26.3,26.3,0,0,0,4.49-1.3l.8.77a32.44,32.44,0,0,1-5.29,1.39v1c0,.47.17.56,1.07.56Zm-5.23,2.11h6.56v6h-1v-.58H22.09v.64h-1Zm1,.9v1.39h4.54v-1.39ZM26.63,244v-1.47H22.09V244Z"/><path class="cls-8" d="M31,240.33v3.88c0,.56-.13.84-.45,1a3.74,3.74,0,0,1-1.61.21,4.49,4.49,0,0,0-.31-1h1.15c.17,0,.22-.05.22-.23v-3.56l-1.41.45-.27-1c.48-.11,1.05-.28,1.68-.48v-3.14H28.51v-1H30v-2.8h1v2.8h1.29v1H31v2.83l1.33-.4.13.95Zm10.15,2.73H37.67v2.38h-1v-2.38H32.4v-1h4.25v-1.59H34.8a2.38,2.38,0,0,0-1.21.19,9.09,9.09,0,0,0-.33-.95c.25-.05.46-.39.73-.88.12-.23.4-.8.7-1.53H33.34v-.87H35c.18-.5.37-1.05.51-1.58l1,.25c-.14.44-.29.9-.46,1.33h4v.87H35.75a22.11,22.11,0,0,1-1.09,2.23h2V238h1v1.6h2.62v.94H37.67v1.59h3.47Zm-7.43-7h-1v-2.67h8v2.68h-1v-1.72h-6Z"/><path class="cls-8" d="M53.58,244.23c0,.58-.13.86-.49,1a5.62,5.62,0,0,1-2,.18,3.68,3.68,0,0,0-.34-1c.73,0,1.39,0,1.59,0s.28-.08.28-.29v-10H47v4.26c0,2.14-.2,5.06-1.56,7a3.37,3.37,0,0,0-.75-.55,7.09,7.09,0,0,0,.87-1.82,23,23,0,0,0-2.39,2,4.66,4.66,0,0,0-.64-.7,2,2,0,0,0,.78-1.5v-4.82h-2v-1h3v5.81l1-.77a6.86,6.86,0,0,0,.31.7,17.12,17.12,0,0,0,.43-4.32v-5.18h7.53Zm-9.29-8.4a16.2,16.2,0,0,0-2.1-2.19l.68-.63A16,16,0,0,1,45,235.1Zm5,2.24v-1.43H47.85v-.78h1.48v-1.18h.86v1.18h1.55v.78H50.19v1.43h1.93v.78H47.54v-.78Zm-.67,5.18v.63h-.81V240h3.74v3.25Zm0-2.46v1.68h2.11v-1.68Z"/><path class="cls-8" d="M56.38,237.86c0,2.23-.16,5.43-1.34,7.63a3.8,3.8,0,0,0-.92-.47c1.13-2.1,1.24-5.07,1.24-7.16v-3.77h5.39c-.16-.39-.36-.85-.56-1.22l1-.25a11,11,0,0,1,.71,1.47h4.86v1H56.38ZM65.67,241a7,7,0,0,1-2.9,2.75,18.26,18.26,0,0,0,4.2.84,3.68,3.68,0,0,0-.58.89,16.75,16.75,0,0,1-4.78-1.2,20.51,20.51,0,0,1-4.9,1.12,4.24,4.24,0,0,0-.45-.87,20.48,20.48,0,0,0,4.26-.81,7,7,0,0,1-2.26-2l.49-.19H56.92v-.86h7.91l.2,0ZM59,239.81V237.5H56.73v-.87H59v-1.21h1v1.21h3.39v-1.21h1v1.21h2.26v.87H64.38v2.31Zm.3,1.75a6.48,6.48,0,0,0,2.37,1.73,6.54,6.54,0,0,0,2.47-1.73ZM60,237.5V239h3.39V237.5Z"/><path class="cls-8" d="M50.73,198.47H31.23a4,4,0,0,0-2.87,1.2,4.15,4.15,0,0,0-1.15,2.81V222a4,4,0,0,0,4,4h19.5a4,4,0,0,0,2.84-1.17A4,4,0,0,0,54.74,222v-19.5a4,4,0,0,0-4-4ZM49,216.65a1.09,1.09,0,0,1-1.09,1.09H40.46a2.89,2.89,0,0,1-5.28,0H34a1.1,1.1,0,0,1-.77-.32,1.07,1.07,0,0,1-.32-.77v-.06A1.09,1.09,0,0,1,34,215.5h1.14a2.89,2.89,0,0,1,5.28,0h7.46A1.09,1.09,0,0,1,49,216.59ZM49,208a1.09,1.09,0,0,1-1.09,1.09H46.77a2.89,2.89,0,0,1-5.28,0H34A1.09,1.09,0,0,1,32.94,208v0A1.09,1.09,0,0,1,34,206.9h7.46a2.89,2.89,0,0,1,5.28,0h1.14A1.08,1.08,0,0,1,49,208v0Zm0,0"/><path class="cls-8" d="M76.4,275a39.5,39.5,0,1,0,39.08,39.92A39.49,39.49,0,0,0,76.4,275Zm-.82,76.74a37.25,37.25,0,1,1,37.65-36.85A37.25,37.25,0,0,1,75.58,351.73Z"/><circle class="cls-3" cx="75.98" cy="314.48" r="37.25"/><path class="cls-8" d="M55.62,335.31l-1.45.28,0,3.07H53.2l0-2.89c-1,.19-1.95.38-2.75.52l-.23-1c.8-.11,1.87-.28,3-.48l0-2-1.41,0a2.05,2.05,0,0,0-1,.18h0v-.06a5.64,5.64,0,0,0-.31-.87c.25-.05.44-.5.67-1.11.14-.35.44-1.27.75-2.39l-1.54,0v-1l1.78,0c.12-.55.23-1.09.31-1.65l1,.22c-.1.47-.21,1-.34,1.44l2.26,0v1l-2.5,0a27,27,0,0,1-1.17,3.31l1.5,0,0-2.18h.93l0,2.18h1.23v.92H54.2l0,1.81,1.38-.23ZM60,328.8V330l2.63,0-.08,7.62c0,.47-.08.74-.4.9a3.31,3.31,0,0,1-1.42.17,4.12,4.12,0,0,0-.28-.93c.46,0,.87,0,1,0s.18,0,.18-.2l0-1.92-1.73,0,0,3H59l0-3H57.21l0,3h-.93l.1-8.73L59,330v-1.24l-3.07,0v-.9l3.07,0,0-1.89h1l0,1.89,3.13,0v.9Zm-2.75,3.59,1.78,0v-1.47l-1.78,0ZM59,334.82l0-1.53-1.78,0,0,1.53Zm.94-3.87,0,1.47,1.74,0V331Zm1.69,3.9,0-1.53-1.74,0v1.53Zm.5-7c-.38-.34-1.1-.92-1.64-1.32l.63-.47c.53.35,1.27.89,1.67,1.23Z"/><path class="cls-8" d="M69.48,336.09c-2.19.5-4.55,1-6.22,1.38l-.17-1.05,1-.19.1-9.5,4.55,0-.09,8.53.77-.16Zm-4.35-8.39,0,2,2.62,0,0-2Zm2.59,3-2.62,0,0,2,2.62,0ZM65,336.05l2.63-.54,0-1.84-2.62,0Zm10.58-6.71s0,.39,0,.52c-.2,5.86-.36,7.85-.83,8.46a1.28,1.28,0,0,1-1,.52,18.6,18.6,0,0,1-1.92,0,2.37,2.37,0,0,0-.3-1c.8.07,1.53.07,1.82.08a.52.52,0,0,0,.52-.21c.35-.41.53-2.26.71-7.36l-2.19,0c-.24,3.64-1.05,6.78-3.9,8.63a2.43,2.43,0,0,0-.75-.78c2.68-1.64,3.41-4.52,3.65-7.86l-2.23,0v-1l2.27,0c0-1,.06-2.07.07-3.15h1c0,1.08,0,2.13-.07,3.15Z"/><path class="cls-8" d="M79.24,333.79a50.16,50.16,0,0,1-2.35,4.57l-.87-.64a45.6,45.6,0,0,0,2.45-4.58Zm-.83-3.68a15.58,15.58,0,0,0-2.11-2.87l.83-.49a16.76,16.76,0,0,1,2.18,2.78Zm6.52,3.59a6.43,6.43,0,0,0,4,4.49,4.57,4.57,0,0,0-.7.89,7.32,7.32,0,0,1-4.19-5,7.53,7.53,0,0,1-4.37,5,4.35,4.35,0,0,0-.73-.84,6.46,6.46,0,0,0,4.12-4.53l-3.27,0v-1l3.44,0a15.09,15.09,0,0,0,.09-1.75l0-1.46-2.8,0v-1l2.8,0,0-2.19h1.07l0,2.19,3.14,0,0,4.21H88.9v1Zm-.53-2.77a15.22,15.22,0,0,1-.11,1.75l2.22,0,0-3.2-2.13,0Z"/><path class="cls-8" d="M91.1,328.47a9.36,9.36,0,0,1-1.34,1.59,8.87,8.87,0,0,0-.84-.58,8.62,8.62,0,0,0,2.23-3.18l1,.26a10.58,10.58,0,0,1-.49,1l3.59,0v.89l-2.4,0a7.36,7.36,0,0,1,.59,1.29l-.92.33a9.45,9.45,0,0,0-.71-1.64Zm4.86,6.2a11.75,11.75,0,0,0,5.84,3.16,6.57,6.57,0,0,0-.67.9A12.57,12.57,0,0,1,96,335.82l0,3.36H94.82l0-3.39a12.37,12.37,0,0,1-5.26,2.88,3.14,3.14,0,0,0-.65-.87,11.15,11.15,0,0,0,5.92-3.24v-1.21l-3.44,0,0,2.69H90.33l0-3.6,4.52.05v-1.08l-5.53-.06v-.92l5.53.06V330a3.22,3.22,0,0,0-.67-.46,7.18,7.18,0,0,0,2.26-3.16l1,.25a9.74,9.74,0,0,1-.47,1l4.5.05v.9l-2.89,0a6.54,6.54,0,0,1,.66,1.28l-.91.31a8.21,8.21,0,0,0-.83-1.6H96.52a12.53,12.53,0,0,1-.81,1H96v.88l5.33.06v.92L96,331.36v1.08l4.53.05,0,2.58c0,.5-.11.71-.48.86a5.17,5.17,0,0,1-1.69.12,3.72,3.72,0,0,0-.34-.83c.56,0,1.1,0,1.26,0s.21-.05.21-.19l0-1.67-3.5,0Z"/><path class="cls-8" d="M73.24,304.75l-7.53-.09A1.74,1.74,0,0,1,64,302.9l.08-7.53a1.75,1.75,0,0,1,1.77-1.73l7.52.09a1.74,1.74,0,0,1,1.73,1.76L75,303a1.74,1.74,0,0,1-1.76,1.72Zm13.22.14-7.53-.08A1.76,1.76,0,0,1,77.2,303l.08-7.53a1.75,1.75,0,0,1,1.77-1.72l7.53.08a1.74,1.74,0,0,1,1.72,1.76l-.08,7.53a1.76,1.76,0,0,1-1.76,1.73Zm-20.89,13a1.76,1.76,0,0,1-1.73-1.77l.08-7.53a1.74,1.74,0,0,1,1.76-1.72l7.53.08a1.74,1.74,0,0,1,1.73,1.76l-.08,7.53A1.74,1.74,0,0,1,73.09,318l-7.52-.08Zm9.46,3.4-13.93-.15a.65.65,0,0,1-.44-.18.66.66,0,0,1-.17-.44l.32-29.62a.61.61,0,0,1,.62-.61l29.61.32a.61.61,0,0,1,.44.19.63.63,0,0,1,.18.44l-.15,13.93a.62.62,0,0,1-.63.61.61.61,0,0,1-.61-.62l.14-13.32L62,291.53l-.3,28.39,13.32.14a.61.61,0,0,1,.53.31.62.62,0,0,1,0,.62.59.59,0,0,1-.54.3Zm9.3-14.15a7.12,7.12,0,1,1-5.07,2,7.15,7.15,0,0,1,5.07-2Zm3.58,6.71a1.31,1.31,0,1,0,.38-.92l-3.85-2a.79.79,0,0,0,0-.22,1.33,1.33,0,0,0-2.65,0,1.24,1.24,0,0,0,.5,1l-1.79,4.37a.29.29,0,0,0-.1,0,1.33,1.33,0,1,0,1.31,1.34,1.3,1.3,0,0,0-.49-1L83.05,312l.1,0a1.31,1.31,0,0,0,1-.4l3.84,2a1.43,1.43,0,0,0,0,.22Zm0,0"/><path class="cls-8" d="M157.29,360.05a39.5,39.5,0,1,0,39.5,39.5A39.49,39.49,0,0,0,157.29,360.05Zm0,76.75a37.25,37.25,0,1,1,37.25-37.25A37.26,37.26,0,0,1,157.29,436.8Z"/><circle class="cls-5" cx="157.29" cy="399.55" r="37.25"/><path class="cls-8" d="M142.58,422.76c.79,0,.93-.45,1-2.27a3.5,3.5,0,0,0,1,.46c-.18,2.1-.52,2.84-2,2.84h-3.08c-1.55,0-2-.4-2-2v-1.47h-3.45v.85H133v-7.86h4.52v-2h1.09v2h4.63v7h-4.63v1.49c0,.82.15,1,1,1Zm-8.47-8.48v2h3.45v-2Zm3.45,5v-2h-3.45v2Zm1.09-5v2h3.6v-2Zm3.6,5v-2h-3.6v2Z"/><path class="cls-8" d="M157.23,412.75v.9H145v-.9h5.82a11.46,11.46,0,0,0-.55-1.28l1-.27a13.44,13.44,0,0,1,.67,1.55Zm-.77,10.13c0,.55-.14.79-.55.94a9.55,9.55,0,0,1-2.31.14,3,3,0,0,0-.32-.8c.87,0,1.68,0,1.9,0s.31-.07.31-.29v-6.33h-8.68V424h-1v-8.35h6.46a13.91,13.91,0,0,0,1-1.91l1.1.24c-.35.57-.71,1.18-1.08,1.67h3.13Zm-6.05-5.74a14.88,14.88,0,0,1-2.71,2.38,4.56,4.56,0,0,0-.47-.81,12.69,12.69,0,0,0,2.43-1.92Zm-1.5-3.46a17.3,17.3,0,0,1,.88,1.55l-.95.38c-.18-.4-.56-1.1-.87-1.62Zm.52,8.57v.65h-.91v-3.83h5.11v3.18Zm0-2.39v1.62h3.33v-1.62Zm5.24-.4a31.79,31.79,0,0,0-2.74-2.15l.59-.62c.91.62,2.13,1.5,2.76,2Z"/><path class="cls-8" d="M170.23,419.13h-5.74V424h-1.06v-4.9h-5.66v-1h5.66v-4.88H158.5v-1h10.95v1h-5v4.88h5.74Zm-9.84-5.23a13.64,13.64,0,0,1,1.33,3.15l-1,.34a16.9,16.9,0,0,0-1.26-3.21Zm5.63,3.24a20.77,20.77,0,0,0,1.51-3.31l1.09.31a26.38,26.38,0,0,1-1.72,3.29Z"/><path class="cls-8" d="M179.07,412.84a22.13,22.13,0,0,1,3.69,4.06l-.88.63a9.74,9.74,0,0,0-.85-1.2c-8,.44-8.81.47-9.36.67a6.41,6.41,0,0,0-.34-1,2.77,2.77,0,0,0,1.14-.83,23.28,23.28,0,0,0,3.22-3.95l1,.46a30.35,30.35,0,0,1-3.58,4.12l7.14-.35a24.77,24.77,0,0,0-2-2.06Zm-6.66,5.34h8.91V424h-1.09v-.73h-6.77V424h-1.05Zm1.05,1v3.1h6.77v-3.1Z"/><path class="cls-8" d="M153.27,400.69a2.77,2.77,0,1,0,2.77,2.77,2.77,2.77,0,0,0-2.77-2.77Zm12.48,0a2.77,2.77,0,1,0,2.58,2.77,2.68,2.68,0,0,0-2.53-2.77Zm-6.22-17.77a2.14,2.14,0,0,0-2.14,2.05h4.31a2.12,2.12,0,0,0-2.17-2.05Zm0,0"/><path class="cls-8" d="M171.57,378.78H148.26l-.51-2.19a1.38,1.38,0,0,0-1.31-1.07h-3.2a1.42,1.42,0,0,0-1.37,1.45,1.44,1.44,0,0,0,1.37,1.47h2.17l4.67,19.64a1.35,1.35,0,0,0,1.29,1.07h16.41a1.37,1.37,0,0,0,1-.41,1.41,1.41,0,0,0,.43-1,1.42,1.42,0,0,0-1.35-1.45H152.49l-.65-2.65h15.67a2.57,2.57,0,0,0,2.32-2.12l2.8-11.33a1,1,0,0,0-.13-1,1,1,0,0,0-.87-.44Zm-8.35,8h-5.78a2.34,2.34,0,0,0,2.56,1.94,4.34,4.34,0,0,0,2-.68,2.58,2.58,0,0,1,1-.41,1.13,1.13,0,0,1,1,1.59,4.48,4.48,0,0,1-4.27,1.86,4.84,4.84,0,0,1-5.13-5.12,4.81,4.81,0,0,1,4.84-5.13,4.66,4.66,0,0,1,3.51,1.37,4.71,4.71,0,0,1,1.36,3.52,1,1,0,0,1-.28.9,1,1,0,0,1-.9.28Zm0,0"/><path class="cls-8" d="M157.08,1.78a39.5,39.5,0,1,0,39.5,39.5A39.5,39.5,0,0,0,157.08,1.78Zm0,76.75a37.26,37.26,0,1,1,37.26-37.25A37.25,37.25,0,0,1,157.08,78.53Z"/><circle class="cls-1" cx="157.08" cy="41.28" r="37.25"/><polygon class="cls-8" points="157.08 17.19 142.08 26.57 172.09 26.57 157.08 17.19"/><polygon class="cls-8" points="165.42 28.43 166.35 30.29 166.35 41.52 170.09 41.52 170.09 30.33 171.04 28.46 165.42 28.43"/><polygon class="cls-8" points="157.94 28.43 158.87 30.29 158.87 41.52 162.6 41.52 162.6 30.33 163.55 28.46 157.94 28.43"/><polygon class="cls-8" points="150.45 28.43 151.38 30.29 151.38 41.52 155.18 41.52 155.18 30.33 156.12 28.46 150.45 28.43"/><polygon class="cls-8" points="142.96 28.43 143.9 30.29 143.9 41.52 147.7 41.52 147.7 30.33 148.63 28.46 142.96 28.43"/><polygon class="cls-8" points="142.96 43.43 142.08 47.2 172.09 47.2 171.16 43.45 142.96 43.43"/><path class="cls-8" d="M158.92,22.84A1.87,1.87,0,1,1,157.08,21a1.87,1.87,0,0,1,1.84,1.87Z"/><path class="cls-8" d="M143.21,57a16,16,0,0,1-1.85,5.73,7,7,0,0,0,2.92,2.62,5.12,5.12,0,0,0-.72.88,7.71,7.71,0,0,1-2.81-2.58,9.36,9.36,0,0,1-3.15,2.61,5.17,5.17,0,0,0-.61-.91,7.88,7.88,0,0,0,3.18-2.65,17.53,17.53,0,0,1-1.44-4,11.66,11.66,0,0,1-.91,1.53,7.23,7.23,0,0,0-.83-.69l.07-.09H135.5v3.55l2.39-.54.1.94c-2.3.56-4.78,1.14-6.51,1.54l-.2-1,.83-.17V57.57h.95v6l1.43-.31v-7.8h-3v-1h6.4v1H135.5v3.05h1.9V59a15.67,15.67,0,0,0,1.95-5.55l1,.18a24.25,24.25,0,0,1-.6,2.41h4.37v1Zm-3.85.24a17.37,17.37,0,0,0,1.42,4.47A15.14,15.14,0,0,0,142.16,57h-2.7Z"/><path class="cls-8" d="M155.66,55.29a9.08,9.08,0,0,1-3.68,3,21.78,21.78,0,0,0,5.05.81,3.93,3.93,0,0,0-.57.94,19.45,19.45,0,0,1-5.72-1.23,25,25,0,0,1-6,1.4,3.39,3.39,0,0,0-.42-.91,24.76,24.76,0,0,0,5.26-1,7.37,7.37,0,0,1-2.08-1.65,14.26,14.26,0,0,1-1.92,1.29,3,3,0,0,0-.65-.77A10.07,10.07,0,0,0,149,53.45l1.09.23c-.27.4-.56.82-.9,1.23h5.65l.18-.06Zm.11,6a2.75,2.75,0,0,1-.05.46c-.3,2.54-.62,3.59-1.1,4a1.61,1.61,0,0,1-1.13.38,19.4,19.4,0,0,1-2.07,0,2.05,2.05,0,0,0-.33-.92c.89.08,1.77.09,2.12.09a1,1,0,0,0,.6-.12c.32-.27.6-1.12.84-3h-4.24c-.89,2.26-2.61,3.43-5.35,4.09a4.46,4.46,0,0,0-.58-.88c2.47-.48,4-1.41,4.82-3.21h-3.85v-.91h4.17a10.23,10.23,0,0,0,.27-1.38l1.08.08c-.07.46-.17.91-.27,1.3ZM148.18,56a6.53,6.53,0,0,0,2.58,1.84,10.06,10.06,0,0,0,3.29-2h-5.66Z"/><path class="cls-8" d="M159.2,55.4a7.48,7.48,0,0,1-1.14,1.68,8.94,8.94,0,0,0-.88-.47,7.76,7.76,0,0,0,1.71-3.17l1,.17a9.28,9.28,0,0,1-.35,1h3.74v.78h-2.13a7.65,7.65,0,0,1,.61,1.22l-.88.32a8.06,8.06,0,0,0-.73-1.54Zm4.42.91a6.16,6.16,0,0,1,.56,1.08h5.1v2.28h-1V58.22H159v1.45h-1V57.39h5.14c-.13-.29-.27-.62-.42-.88Zm-3.06,6.52h7.75v3.41h-1v-.45h-6.73v.48h-1v-7.2h8.07v2.79h-7Zm0-3v1.19h6V59.87Zm0,3.77V65h6.73V63.64Zm9.07-9v.77h-2.49a8.32,8.32,0,0,1,.77,1.19l-.84.39a8,8,0,0,0-1-1.58h-1a6.72,6.72,0,0,1-.82,1.21,4.48,4.48,0,0,0-.86-.49,6.1,6.1,0,0,0,1.36-2.67l1,.17c-.1.35-.21.67-.34,1Z"/><path class="cls-8" d="M174.53,63.37l-4.34,1.46-.24-1c.52-.16,1.16-.35,1.87-.59V59.42h-1.59v-1h1.59v-3h-1.73v-1h4.34v1h-1.61v3h1.41v1h-1.41v3.46l1.53-.5Zm8.36,1.49v1h-9v-1h4.26V62.94H175V62h3.18V60.35h-3V54.11h7.11v6.24h-3V62h3.26v1h-3.26v1.92Zm-6.82-8.07h2.13V55h-2.13Zm0,2.65h2.13v-1.8h-2.13ZM181.24,55h-2.15v1.77h2.15Zm0,2.62h-2.15v1.8h2.15Z"/></svg>