<svg id="图层_1" data-name="图层 1" xmlns="http://www.w3.org/2000/svg" viewBox="0 0 650 42"><defs><style>.cls-1{fill:#fff;}</style></defs><title>登录text</title><path class="cls-1" d="M33.06,25.72,22.3,38.92H14.19L28.74,21H15.54V16.48h14V7.71H15.34V3.14H51.57L49.41,7.71H36.12v8.77H51.46L49.35,21h-12L51.81,38.92H43.7Z"/><path class="cls-1" d="M61.89,14.29a3.88,3.88,0,0,1,1.72.46,3.11,3.11,0,0,1,1.33,1.31,3.86,3.86,0,0,1,.49,1.83,3.57,3.57,0,0,1-3.54,3.59,3.46,3.46,0,0,1-3.08-1.79,3.65,3.65,0,0,1-.46-1.82,3.69,3.69,0,0,1,.48-1.81,3.2,3.2,0,0,1,1.31-1.32A3.59,3.59,0,0,1,61.89,14.29Zm0-11.42a3.56,3.56,0,0,1,1.68.45,3.34,3.34,0,0,1,1.34,1.32,3.71,3.71,0,0,1,.5,1.81,3.28,3.28,0,0,1-.48,1.77,3.74,3.74,0,0,1-1.31,1.31,3.15,3.15,0,0,1-1.73.46,3.55,3.55,0,0,1-1.77-.47,3.43,3.43,0,0,1-1.3-1.29,3.48,3.48,0,0,1-.45-1.81,3.59,3.59,0,0,1,.48-1.79,3.26,3.26,0,0,1,1.33-1.3A3.72,3.72,0,0,1,61.89,2.87ZM59,25.48h5.92V37.14L59,39.56ZM75.5,31v-2.4H67.92V24.66H75.5V22.57H68.35v-4H75.5V15.38h-8v-4h8V8.43H68.35v-4H75.5V2.67h6.21V4.45h9.34v6.89H93l-1.19,4h-.72v3.15l-4.3,4h-5v2.09H92l-1.85,3.93H81.71V31H92.35L90.5,35H81.71v2.07L75.5,39.72V35H67.43V31ZM81.71,8.43v2.91h3.16V8.43Zm0,10.1h3.16V15.38H81.71Z"/><path class="cls-1" d="M112.51,4.94A4.34,4.34,0,0,1,114.2,3a4.29,4.29,0,0,1,2.18-.6,4.24,4.24,0,0,1,2.15.6,4.43,4.43,0,0,1,1.71,1.92h14.1l-2.05,4.45H119.34V12h13.83V32.57L127,37.4h-4.55V32.79H127V16.69h-7.62V35.87l-6.3,3V16.69h-7.6V34.56L99.25,37.4V12H113V9.39H98.88V4.94Z"/><path class="cls-1" d="M151.45,2.94l-6.38,11.88h1.5l1.91-3.65h6l-8.11,15.11h8l-2.17,4.5-12.44,0,0-4.11L144.36,19h-4.59l0-6,5.39-10Zm2.07,31.59-1.81,4.53-11.74,0V34.53Zm7.25-10.88-1.94,15.11h-5.68l4-31.25h-3.27V3H175V6.71l-5.1,9.18,5.23,0,0,4.61-4.65,9.1,5.3,9.3h-6.37l-2-3.42-1.68,3.3-6.25,0,4.68-9Zm.35-2.74h4.45l1.74,3,1.84-3.54h-5.33V16l4.23-8.46h-5.21Z"/><path class="cls-1" d="M192.62,3.08l-5.86,11.54h1.08l2.24-4.39h6.21l-8.22,16.05h7.11l-2,4.63-11.72,0,0-4.39,4.22-7.5h-4.38V13.47l4.91-10.39Zm2.72,31.11-2.21,4.52-11.74,0V34.19Zm0,4.24,2.36-12h5.24l-2.23,12Zm1-18.55h21.63L216,24.17h-6.35v10.2l-4.49,4.55h-2.93V34.64h2.15V24.17h-8.11Zm.45-7.54V4.58h6.74c.17-.26.37-.53.6-.82a5.21,5.21,0,0,1,1.57-1,2.79,2.79,0,0,1,2.59,0A4.47,4.47,0,0,1,210,4l.39.58h6.87V10l-5.54,2.05V8.72h-9.4v2Zm.06.56h20.74l-1.93,4.18H196.8Zm20.9,25.36-5.25,0-1.31-11.82h5.13Z"/><path class="cls-1" d="M245.59,3.2l13.09,10.43H249.5L241.21,7.1l-8.67,6.55h-9.27L236.84,3.2Zm13,13.06-1.76,4.14H223.6V16.26ZM224.26,23.2H257.7V33.71l-6.58,4.57-26.86,0Zm26.94,4.12H230.75v6.39H251.2Z"/><path class="cls-1" d="M270.78,24.56l-1.64,12.58h-4.72l2.42-18h3.94V17.75h-5.91V13.31h5.91V2.61h5.36v10.7h5.7l-2,4.44h-3.65v1.37h4l2.11,18.12h-4.73l-1.42-13.12v13.2l-5.36,2.17ZM270.45,12H266L264.61,3.8h4.45ZM278,3.8h4.32L280.94,12h-4.49Zm4.94.61h5a12.06,12.06,0,0,1,.86-1.2,2.56,2.56,0,0,1,2.08-.8,5.09,5.09,0,0,1,2.3.37,2.91,2.91,0,0,1,1.21,1l.41.63h5.12v14L294.65,23h-6.48v11.8h3.65l-1.86,4h-7Zm11.68,4.18h-6.42V12h6.09L292.54,16h-4.37v2.79h6.42Zm.72,17.09,5-1.72-1,4.82-2.42.88,3.55,8.91h-5.7l-5.65-14.24h5.65Z"/><path class="cls-1" d="M313.13,3h21.6L342,10.83l-8.2,0L330.27,7.1H317.5l-3,3.75-8.14,0ZM341,12.12V24.76l-6.8,4.16-20.2,0v5.64l8.28,0V39H307.48V12.12l12.91,0c.25-.32.64-.76,1.16-1.31a2.84,2.84,0,0,1,2.17-.84,5.94,5.94,0,0,1,2.35.39,3.59,3.59,0,0,1,1.51,1l.6.72Zm-8.21,6.66-1.78,3.68H314V25l20.37,0V16.13H314v2.65ZM328.09,32l11.19-4.4-1,5-5.84,2.27h9.3l-1.92,4-10.43,0-12.34-8.92h8Z"/><path class="cls-1" d="M354.73,17.2v1l-6.53,1.52V13.55h14.26a3.9,3.9,0,0,1,.33-.7l.45-.61h-3.57L357.15,6.3H355.9l-1.78,6.16h-6L351,2.88h15.44L364.57,6.3h-1.74l2.25,4.83a5.1,5.1,0,0,1,1.56,0L369,2.81h15L382.17,6.3h-1.41l2.89,6h-5.88L375,6.3h-1l-1.59,6h-3.65c.27.39.54.8.8,1.23h14v3.89l-6.53,1.89V17.2Zm-4.87,2.56h32.48l0,5.08-5.55,4-20.44,0v1.35h25.95l0,4.57-5.49,3.94h-27Zm26,3.48H356.39v2h19.45ZM356.39,33.35v1.82h19.45V33.35Z"/><path class="cls-1" d="M402.26,3l-1.72,4.38h-2V18.49h3.09l-1.84,4.45h-1.25V34.33h3.26l-1.89,4.45H389.55V34.33h3.1V22.94h-3.1V18.49h3.1v-11h-3V3Zm-.33,31.78h8.85V31.19h-8v-4h8V23.45h-7.87V3.18h21.76V18.86l-5.57,4.59h-2.31v3.71h7.78l-1.84,4h-5.94v3.59h9l-2,4.08H401.93ZM411,7.26h-2.18v4.1H411Zm0,8.07h-2.18v4.18H411Zm7.84-8.07h-2.25v4.1h2.25Zm-2.25,12.25h2.25V15.33h-2.25Z"/><path class="cls-1" d="M431.07,37.42l1.47-19.52h4.94l-1.33,19.52Zm13.11-21.53V38.08l-5.51,1.86v-24h-7.13V11.56h7.13V8.65l-7.19.66V4.68L451.19,2.9,450,7.44l-5.84.74v3.38h7.52l-2,4.33Zm5.87,2,1.25,19.52h-4.84L445.27,17.9ZM466.7,3.08V33l-4.85,5.24h-9.39V3.08Zm-5.51,4.53h-3.32V33.67l3.34,0Z"/><path class="cls-1" d="M488.72,3.2V34.25l-4.66,4.67h-3.5v-4.2h2.7V28.33h-4v9l-5.51,2.24V3.2Zm-9.45,10.62h4V7.49h-4Zm0,10.28h4V18h-4Zm25,7.36,4.32,7.25h-5.53l-1.25-2.15-1,2.22h-5.73l3.71-7.48-3.3-5.68h5.32l.44.72,1.22-2.46h-7.17V37.34l-5.47,2.17V3.2h17.62V13.82l-5.1,4.47h-5.7V14.15h5.31V7.28h-6.66V19.8h12.87v3.59Z"/><path class="cls-1" d="M525.62,14.92l-8.48-4.36H528L531.46,12l7.91-3.72H522.1l-.78,1.45h-7l4.26-7.21h6.5l-.84,1.39h24.2V9.1l-11,5.68,13.13,5.9H538.47l-6.66-3.13-7.11,3.13H513.25Zm4.39,9h19.42v10l-6.25,4.94H531.36V34.54h11.91V28.31H527.73l-5.49,10.51h-6.8l5.49-10.51h-5.8V23.9h8.08l1.31-2.44h6.8Z"/><path class="cls-1" d="M577.24,28.24h15.51l-2.17,4.66H577.22v2.84L570.73,39V32.9H556.22V28.24h14.51V7.75H556.57V3.08h35.69l-2.17,4.67H577.24ZM562.51,9.92l5.63,15.5h-6.22l-5.5-15.5Zm22.27,0h6.11l-5.53,15.5h-6.21Z"/><path class="cls-1" d="M626.55,14.39l-1.4,3H597.94V12.79L605,2.2h7.67l-6.17,10.43,19.71,0L625,6.46h6.37l2,11h-6.21Zm-28.61,5.29h34.8V33.33l-6.38,5.2-28.42,0Zm28.28,4.67H604.48v9.36h21.76Z"/></svg>